<svg
  width="100%"
  height="100%"
  viewBox="0 0 106 106"
  fill="none"
  xmlns="http://www.w3.org/2000/svg"
>
<path
    d="M41.8662 94.7164C64.8053 100.863 88.3837 87.2499 94.5302 64.3108C100.677 41.3718 87.0637 17.7933 64.1247 11.6468C41.1856 5.5003 17.6071 19.1133 11.4606 42.0524C5.31413 64.9914 18.9272 88.5699 41.8662 94.7164Z"
    fill="#0088CC"
  />
<path
    fill-rule="evenodd"
    clip-rule="evenodd"
    d="M45.2069 35.991L68.4961 42.2314C69.3861 42.4698 70.088 42.8169 70.8588 43.5004C71.778 44.2237 72.1726 45.1243 72.3103 45.7972C72.3103 45.7972 72.2705 45.9455 72.4189 45.9853C72.6651 46.8462 72.7233 47.8157 72.4451 48.8541C72.2066 49.7441 71.8198 50.5944 70.988 51.3255L49.5454 72.6081C49.0897 73.1219 48.4169 73.2596 47.6752 73.0609C47.0818 72.9019 46.568 72.4462 46.282 71.7336L38.6501 42.6606C38.5125 41.9877 38.1178 41.087 38.4358 39.9003C38.5657 38.8222 39.1009 38.0117 39.7844 37.2409C40.4679 36.4701 41.4083 35.9271 42.5262 35.9087C43.5752 35.5538 44.6135 35.8321 45.2069 35.991ZM54.0433 42.1745L44.253 39.5512C43.6596 39.3922 43.3629 39.3127 43.1749 39.4213C42.8384 39.4901 42.6503 39.5987 42.4225 39.8556C42.2344 39.9642 42.1549 40.2609 42.0754 40.5576C42.0357 40.7059 42.1443 40.894 42.282 41.5669L48.2402 63.8319L54.0433 42.1745ZM57.6034 43.1284L51.7606 64.9342L68.2412 48.5226C68.4691 48.2657 68.5486 47.969 68.628 47.6723C68.7075 47.3757 68.787 47.079 68.6784 46.8909C68.5698 46.7028 68.6096 46.5545 68.4613 46.5147L68.3527 46.3266C68.0957 46.0988 67.7991 46.0193 67.354 45.9001L57.5637 43.2768L57.6034 43.1284Z"
    fill="white"
  />
</svg>
