<svg width="107" height="106" viewBox="0 0 107 106" fill="none" xmlns="http://www.w3.org/2000/svg">
<path d="M42.4912 94.5348C65.3375 100.656 89.0336 86.9755 95.1552 64.1292C101.268 41.2806 87.5874 17.5845 64.7497 11.4652C41.9034 5.34351 18.2073 19.0245 12.0856 41.8707C5.96398 64.717 19.6449 88.4131 42.4912 94.5348Z" fill="#0098EA"/>
<path d="M66.3741 65.4018C66.0169 66.7348 64.8123 67.6645 63.4321 67.6719L36.6409 67.8169C35.1086 67.8253 33.9882 66.3732 34.3849 64.8929C34.661 63.8623 35.604 63.1521 36.6712 63.1719L59.4685 63.5914C59.5525 63.5928 59.6267 63.537 59.6484 63.456C59.67 63.3755 59.6344 63.2907 59.5619 63.2497L40.1755 52.2895C38.9416 51.5918 38.3357 50.1481 38.7027 48.7787C39.0695 47.4098 40.3161 46.462 41.7339 46.4752L64.0173 46.6799C64.1006 46.6807 64.1738 46.6251 64.1954 46.5446C64.2171 46.4636 64.1808 46.3782 64.1072 46.3378L44.142 35.3143C43.2049 34.797 42.7411 33.7071 43.0182 32.673C43.4158 31.1889 45.1171 30.4901 46.4433 31.2663L69.5692 44.799C70.7566 45.4939 71.3326 46.8966 70.9765 48.2252C70.6214 49.5505 69.4256 50.4766 68.0534 50.4884L46.3757 50.6778C46.3053 50.6786 46.2434 50.7263 46.2252 50.7944C46.2069 50.8624 46.2367 50.9347 46.2973 50.9706L64.97 61.97C66.1561 62.6683 66.7303 64.0723 66.3741 65.4018Z" fill="white"/>
</svg>
