<svg width="16" height="16" viewBox="0 0 16 16" fill="none" xmlns="http://www.w3.org/2000/svg">
<g clip-path="url(#clip0_741_42786)">
<path d="M13.3335 7.99967V14.6663H2.66683V7.99967M8.00016 14.6663V4.66634M8.00016 4.66634H5.00016C4.55814 4.66634 4.13421 4.49075 3.82165 4.17819C3.50909 3.86562 3.3335 3.4417 3.3335 2.99967C3.3335 2.55765 3.50909 2.13372 3.82165 1.82116C4.13421 1.5086 4.55814 1.33301 5.00016 1.33301C7.3335 1.33301 8.00016 4.66634 8.00016 4.66634ZM8.00016 4.66634H11.0002C11.4422 4.66634 11.8661 4.49075 12.1787 4.17819C12.4912 3.86562 12.6668 3.4417 12.6668 2.99967C12.6668 2.55765 12.4912 2.13372 12.1787 1.82116C11.8661 1.5086 11.4422 1.33301 11.0002 1.33301C8.66683 1.33301 8.00016 4.66634 8.00016 4.66634ZM1.3335 4.66634H14.6668V7.99967H1.3335V4.66634Z" stroke="#F9FAFB" stroke-linecap="round" stroke-linejoin="round"/>
</g>
<defs>
<clipPath id="clip0_741_42786">
<rect width="16" height="16" fill="white"/>
</clipPath>
</defs>
</svg>
