<svg width="25" height="24" viewBox="0 0 25 24" fill="none" xmlns="http://www.w3.org/2000/svg">
<path d="M18.6641 22H4.66406C4.13363 22 3.62492 21.7893 3.24985 21.4142C2.87478 21.0391 2.66406 20.5304 2.66406 20V6" stroke="white" stroke-width="1.5" stroke-linecap="round" stroke-linejoin="round"/>
<path d="M22.6641 12.9998L21.3681 11.7038C20.9161 11.2519 20.3032 10.998 19.6641 10.998C19.025 10.998 18.412 11.2519 17.9601 11.7038L11.6641 17.9998" stroke="white" stroke-width="1.5" stroke-linecap="round" stroke-linejoin="round"/>
<path d="M12.6641 10C13.7686 10 14.6641 9.10457 14.6641 8C14.6641 6.89543 13.7686 6 12.6641 6C11.5595 6 10.6641 6.89543 10.6641 8C10.6641 9.10457 11.5595 10 12.6641 10Z" stroke="white" stroke-width="1.5" stroke-linecap="round" stroke-linejoin="round"/>
<path d="M20.6641 2H8.66406C7.55949 2 6.66406 2.89543 6.66406 4V16C6.66406 17.1046 7.55949 18 8.66406 18H20.6641C21.7686 18 22.6641 17.1046 22.6641 16V4C22.6641 2.89543 21.7686 2 20.6641 2Z" stroke="white" stroke-width="1.5" stroke-linecap="round" stroke-linejoin="round"/>
</svg>
