<svg
  width="16"
  height="16"
  viewBox="0 0 16 16"
  fill="none"
  xmlns="http://www.w3.org/2000/svg"
>
<path
    d="M8.99967 4.66634C9.18377 4.66634 9.33301 4.5171 9.33301 4.33301C9.33301 4.14891 9.18377 3.99967 8.99967 3.99967C8.81558 3.99967 8.66634 4.14891 8.66634 4.33301C8.66634 4.5171 8.81558 4.66634 8.99967 4.66634Z"
    stroke="currentColor"
    stroke-linecap="round"
    stroke-linejoin="round"
  />
<path
    d="M11.6663 7.33301C11.8504 7.33301 11.9997 7.18377 11.9997 6.99967C11.9997 6.81558 11.8504 6.66634 11.6663 6.66634C11.4822 6.66634 11.333 6.81558 11.333 6.99967C11.333 7.18377 11.4822 7.33301 11.6663 7.33301Z"
    stroke="currentColor"
    stroke-linecap="round"
    stroke-linejoin="round"
  />
<path
    d="M5.66634 5.33301C5.85044 5.33301 5.99967 5.18377 5.99967 4.99967C5.99967 4.81558 5.85044 4.66634 5.66634 4.66634C5.48225 4.66634 5.33301 4.81558 5.33301 4.99967C5.33301 5.18377 5.48225 5.33301 5.66634 5.33301Z"
    stroke="currentColor"
    stroke-linecap="round"
    stroke-linejoin="round"
  />
<path
    d="M4.33301 8.66634C4.5171 8.66634 4.66634 8.5171 4.66634 8.33301C4.66634 8.14891 4.5171 7.99967 4.33301 7.99967C4.14891 7.99967 3.99967 8.14891 3.99967 8.33301C3.99967 8.5171 4.14891 8.66634 4.33301 8.66634Z"
    stroke="currentColor"
    stroke-linecap="round"
    stroke-linejoin="round"
  />
<path
    d="M7.99967 1.33301C4.33301 1.33301 1.33301 4.33301 1.33301 7.99967C1.33301 11.6663 4.33301 14.6663 7.99967 14.6663C8.61701 14.6663 9.09834 14.169 9.09834 13.541C9.09834 13.2497 8.97834 12.9843 8.80701 12.791C8.61367 12.5983 8.51501 12.3563 8.51501 12.041C8.51248 11.8943 8.53952 11.7485 8.5945 11.6125C8.64949 11.4764 8.73131 11.3528 8.83507 11.2491C8.93884 11.1453 9.06244 11.0635 9.19849 11.0085C9.33455 10.9535 9.48028 10.9265 9.62701 10.929H10.9577C12.9917 10.929 14.661 9.26034 14.661 7.22634C14.643 4.00767 11.6403 1.33301 7.99967 1.33301Z"
    stroke="currentColor"
    stroke-linecap="round"
    stroke-linejoin="round"
  />
</svg>
