<svg width="1085" height="1085" viewBox="0 0 1085 1085" fill="none" xmlns="http://www.w3.org/2000/svg">
<path d="M21.6641 18.1069L42.2042 24.9536C42.3515 25.0027 42.3515 25.2111 42.2042 25.2602L22.1239 31.9536C21.9766 32.0027 21.9766 32.2111 22.1239 32.2602L42.2042 38.9536C42.3515 39.0027 42.3515 39.2111 42.2042 39.2602L21.6641 46.1069" stroke="#793CFF" stroke-width="3.87796" stroke-linecap="round"/>
<path d="M89.6641 18.1069L110.204 24.9536C110.352 25.0027 110.352 25.2111 110.204 25.2602L90.1239 31.9536C89.9766 32.0027 89.9766 32.2111 90.1239 32.2602L110.204 38.9536C110.352 39.0027 110.352 39.2111 110.204 39.2602L89.6641 46.1069" stroke="#793CFF" stroke-width="3.87796" stroke-linecap="round"/>
<path d="M157.664 18.1069L178.204 24.9536C178.352 25.0027 178.352 25.2111 178.204 25.2602L158.124 31.9536C157.977 32.0027 157.977 32.2111 158.124 32.2602L178.204 38.9536C178.352 39.0027 178.352 39.2111 178.204 39.2602L157.664 46.1069" stroke="#793CFF" stroke-width="3.87796" stroke-linecap="round"/>
<path d="M225.664 18.1069L246.204 24.9536C246.352 25.0027 246.352 25.2111 246.204 25.2602L226.124 31.9536C225.977 32.0027 225.977 32.2111 226.124 32.2602L246.204 38.9536C246.352 39.0027 246.352 39.2111 246.204 39.2602L225.664 46.1069" stroke="#793CFF" stroke-width="3.87796" stroke-linecap="round"/>
<path d="M293.664 18.1069L314.204 24.9536C314.352 25.0027 314.352 25.2111 314.204 25.2602L294.124 31.9536C293.977 32.0027 293.977 32.2111 294.124 32.2602L314.204 38.9536C314.352 39.0027 314.352 39.2111 314.204 39.2602L293.664 46.1069" stroke="#793CFF" stroke-width="3.87796" stroke-linecap="round"/>
<path d="M361.664 18.1069L382.204 24.9536C382.352 25.0027 382.352 25.2111 382.204 25.2602L362.124 31.9536C361.977 32.0027 361.977 32.2111 362.124 32.2602L382.204 38.9536C382.352 39.0027 382.352 39.2111 382.204 39.2602L361.664 46.1069" stroke="#793CFF" stroke-width="3.87796" stroke-linecap="round"/>
<path d="M429.664 18.1069L450.204 24.9536C450.352 25.0027 450.352 25.2111 450.204 25.2602L430.124 31.9536C429.977 32.0027 429.977 32.2111 430.124 32.2602L450.204 38.9536C450.352 39.0027 450.352 39.2111 450.204 39.2602L429.664 46.1069" stroke="#793CFF" stroke-width="3.87796" stroke-linecap="round"/>
<path d="M497.664 18.1069L518.204 24.9536C518.352 25.0027 518.352 25.2111 518.204 25.2602L498.124 31.9536C497.977 32.0027 497.977 32.2111 498.124 32.2602L518.204 38.9536C518.352 39.0027 518.352 39.2111 518.204 39.2602L497.664 46.1069" stroke="#793CFF" stroke-width="3.87796" stroke-linecap="round"/>
<path d="M565.664 18.1069L586.204 24.9536C586.352 25.0027 586.352 25.2111 586.204 25.2602L566.124 31.9536C565.977 32.0027 565.977 32.2111 566.124 32.2602L586.204 38.9536C586.352 39.0027 586.352 39.2111 586.204 39.2602L565.664 46.1069" stroke="#793CFF" stroke-width="3.87796" stroke-linecap="round"/>
<path d="M633.664 18.1069L654.204 24.9536C654.352 25.0027 654.352 25.2111 654.204 25.2602L634.124 31.9536C633.977 32.0027 633.977 32.2111 634.124 32.2602L654.204 38.9536C654.352 39.0027 654.352 39.2111 654.204 39.2602L633.664 46.1069" stroke="#793CFF" stroke-width="3.87796" stroke-linecap="round"/>
<path d="M701.664 18.1069L722.204 24.9536C722.352 25.0027 722.352 25.2111 722.204 25.2602L702.124 31.9536C701.977 32.0027 701.977 32.2111 702.124 32.2602L722.204 38.9536C722.352 39.0027 722.352 39.2111 722.204 39.2602L701.664 46.1069" stroke="#793CFF" stroke-width="3.87796" stroke-linecap="round"/>
<path d="M769.664 18.1069L790.204 24.9536C790.352 25.0027 790.352 25.2111 790.204 25.2602L770.124 31.9536C769.977 32.0027 769.977 32.2111 770.124 32.2602L790.204 38.9536C790.352 39.0027 790.352 39.2111 790.204 39.2602L769.664 46.1069" stroke="#793CFF" stroke-width="3.87796" stroke-linecap="round"/>
<path d="M837.664 18.1069L858.204 24.9536C858.352 25.0027 858.352 25.2111 858.204 25.2602L838.124 31.9536C837.977 32.0027 837.977 32.2111 838.124 32.2602L858.204 38.9536C858.352 39.0027 858.352 39.2111 858.204 39.2602L837.664 46.1069" stroke="#793CFF" stroke-width="3.87796" stroke-linecap="round"/>
<path d="M905.664 18.1069L926.204 24.9536C926.352 25.0027 926.352 25.2111 926.204 25.2602L906.124 31.9536C905.977 32.0027 905.977 32.2111 906.124 32.2602L926.204 38.9536C926.352 39.0027 926.352 39.2111 926.204 39.2602L905.664 46.1069" stroke="#793CFF" stroke-width="3.87796" stroke-linecap="round"/>
<path d="M973.664 18.1069L994.204 24.9536C994.352 25.0027 994.352 25.2111 994.204 25.2602L974.124 31.9536C973.977 32.0027 973.977 32.2111 974.124 32.2602L994.204 38.9536C994.352 39.0027 994.352 39.2111 994.204 39.2602L973.664 46.1069" stroke="#793CFF" stroke-width="3.87796" stroke-linecap="round"/>
<path d="M1041.66 18.1069L1062.2 24.9536C1062.35 25.0027 1062.35 25.2111 1062.2 25.2602L1042.12 31.9536C1041.98 32.0027 1041.98 32.2111 1042.12 32.2602L1062.2 38.9536C1062.35 39.0027 1062.35 39.2111 1062.2 39.2602L1041.66 46.1069" stroke="#793CFF" stroke-width="3.87796" stroke-linecap="round"/>
<path d="M21.6641 86.1069L42.2042 92.9536C42.3515 93.0027 42.3515 93.2111 42.2042 93.2602L22.1239 99.9536C21.9766 100.003 21.9766 100.211 22.1239 100.26L42.2042 106.954C42.3515 107.003 42.3515 107.211 42.2042 107.26L21.6641 114.107" stroke="#793CFF" stroke-width="3.87796" stroke-linecap="round"/>
<path d="M89.6641 86.1069L110.204 92.9536C110.352 93.0027 110.352 93.2111 110.204 93.2602L90.1239 99.9536C89.9766 100.003 89.9766 100.211 90.1239 100.26L110.204 106.954C110.352 107.003 110.352 107.211 110.204 107.26L89.6641 114.107" stroke="#793CFF" stroke-width="3.87796" stroke-linecap="round"/>
<path d="M157.664 86.1069L178.204 92.9536C178.352 93.0027 178.352 93.2111 178.204 93.2602L158.124 99.9536C157.977 100.003 157.977 100.211 158.124 100.26L178.204 106.954C178.352 107.003 178.352 107.211 178.204 107.26L157.664 114.107" stroke="#793CFF" stroke-width="3.87796" stroke-linecap="round"/>
<path d="M225.664 86.1069L246.204 92.9536C246.352 93.0027 246.352 93.2111 246.204 93.2602L226.124 99.9536C225.977 100.003 225.977 100.211 226.124 100.26L246.204 106.954C246.352 107.003 246.352 107.211 246.204 107.26L225.664 114.107" stroke="#793CFF" stroke-width="3.87796" stroke-linecap="round"/>
<path d="M293.664 86.1069L314.204 92.9536C314.352 93.0027 314.352 93.2111 314.204 93.2602L294.124 99.9536C293.977 100.003 293.977 100.211 294.124 100.26L314.204 106.954C314.352 107.003 314.352 107.211 314.204 107.26L293.664 114.107" stroke="#793CFF" stroke-width="3.87796" stroke-linecap="round"/>
<path d="M361.664 86.1069L382.204 92.9536C382.352 93.0027 382.352 93.2111 382.204 93.2602L362.124 99.9536C361.977 100.003 361.977 100.211 362.124 100.26L382.204 106.954C382.352 107.003 382.352 107.211 382.204 107.26L361.664 114.107" stroke="#793CFF" stroke-width="3.87796" stroke-linecap="round"/>
<path d="M429.664 86.1069L450.204 92.9536C450.352 93.0027 450.352 93.2111 450.204 93.2602L430.124 99.9536C429.977 100.003 429.977 100.211 430.124 100.26L450.204 106.954C450.352 107.003 450.352 107.211 450.204 107.26L429.664 114.107" stroke="#793CFF" stroke-width="3.87796" stroke-linecap="round"/>
<path d="M497.664 86.1069L518.204 92.9536C518.352 93.0027 518.352 93.2111 518.204 93.2602L498.124 99.9536C497.977 100.003 497.977 100.211 498.124 100.26L518.204 106.954C518.352 107.003 518.352 107.211 518.204 107.26L497.664 114.107" stroke="#793CFF" stroke-width="3.87796" stroke-linecap="round"/>
<path d="M565.664 86.1069L586.204 92.9536C586.352 93.0027 586.352 93.2111 586.204 93.2602L566.124 99.9536C565.977 100.003 565.977 100.211 566.124 100.26L586.204 106.954C586.352 107.003 586.352 107.211 586.204 107.26L565.664 114.107" stroke="#793CFF" stroke-width="3.87796" stroke-linecap="round"/>
<path d="M633.664 86.1069L654.204 92.9536C654.352 93.0027 654.352 93.2111 654.204 93.2602L634.124 99.9536C633.977 100.003 633.977 100.211 634.124 100.26L654.204 106.954C654.352 107.003 654.352 107.211 654.204 107.26L633.664 114.107" stroke="#793CFF" stroke-width="3.87796" stroke-linecap="round"/>
<path d="M701.664 86.1069L722.204 92.9536C722.352 93.0027 722.352 93.2111 722.204 93.2602L702.124 99.9536C701.977 100.003 701.977 100.211 702.124 100.26L722.204 106.954C722.352 107.003 722.352 107.211 722.204 107.26L701.664 114.107" stroke="#793CFF" stroke-width="3.87796" stroke-linecap="round"/>
<path d="M769.664 86.1069L790.204 92.9536C790.352 93.0027 790.352 93.2111 790.204 93.2602L770.124 99.9536C769.977 100.003 769.977 100.211 770.124 100.26L790.204 106.954C790.352 107.003 790.352 107.211 790.204 107.26L769.664 114.107" stroke="#793CFF" stroke-width="3.87796" stroke-linecap="round"/>
<path d="M837.664 86.1069L858.204 92.9536C858.352 93.0027 858.352 93.2111 858.204 93.2602L838.124 99.9536C837.977 100.003 837.977 100.211 838.124 100.26L858.204 106.954C858.352 107.003 858.352 107.211 858.204 107.26L837.664 114.107" stroke="#793CFF" stroke-width="3.87796" stroke-linecap="round"/>
<path d="M905.664 86.1069L926.204 92.9536C926.352 93.0027 926.352 93.2111 926.204 93.2602L906.124 99.9536C905.977 100.003 905.977 100.211 906.124 100.26L926.204 106.954C926.352 107.003 926.352 107.211 926.204 107.26L905.664 114.107" stroke="#793CFF" stroke-width="3.87796" stroke-linecap="round"/>
<path d="M973.664 86.1069L994.204 92.9536C994.352 93.0027 994.352 93.2111 994.204 93.2602L974.124 99.9536C973.977 100.003 973.977 100.211 974.124 100.26L994.204 106.954C994.352 107.003 994.352 107.211 994.204 107.26L973.664 114.107" stroke="#793CFF" stroke-width="3.87796" stroke-linecap="round"/>
<path d="M1041.66 86.1069L1062.2 92.9536C1062.35 93.0027 1062.35 93.2111 1062.2 93.2602L1042.12 99.9536C1041.98 100.003 1041.98 100.211 1042.12 100.26L1062.2 106.954C1062.35 107.003 1062.35 107.211 1062.2 107.26L1041.66 114.107" stroke="#793CFF" stroke-width="3.87796" stroke-linecap="round"/>
<path d="M21.6641 154.107L42.2042 160.954C42.3515 161.003 42.3515 161.211 42.2042 161.26L22.1239 167.954C21.9766 168.003 21.9766 168.211 22.1239 168.26L42.2042 174.954C42.3515 175.003 42.3515 175.211 42.2042 175.26L21.6641 182.107" stroke="#793CFF" stroke-width="3.87796" stroke-linecap="round"/>
<path d="M89.6641 154.107L110.204 160.954C110.352 161.003 110.352 161.211 110.204 161.26L90.1239 167.954C89.9766 168.003 89.9766 168.211 90.1239 168.26L110.204 174.954C110.352 175.003 110.352 175.211 110.204 175.26L89.6641 182.107" stroke="#793CFF" stroke-width="3.87796" stroke-linecap="round"/>
<path d="M157.664 154.107L178.204 160.954C178.352 161.003 178.352 161.211 178.204 161.26L158.124 167.954C157.977 168.003 157.977 168.211 158.124 168.26L178.204 174.954C178.352 175.003 178.352 175.211 178.204 175.26L157.664 182.107" stroke="#793CFF" stroke-width="3.87796" stroke-linecap="round"/>
<path d="M225.664 154.107L246.204 160.954C246.352 161.003 246.352 161.211 246.204 161.26L226.124 167.954C225.977 168.003 225.977 168.211 226.124 168.26L246.204 174.954C246.352 175.003 246.352 175.211 246.204 175.26L225.664 182.107" stroke="#793CFF" stroke-width="3.87796" stroke-linecap="round"/>
<path d="M293.664 154.107L314.204 160.954C314.352 161.003 314.352 161.211 314.204 161.26L294.124 167.954C293.977 168.003 293.977 168.211 294.124 168.26L314.204 174.954C314.352 175.003 314.352 175.211 314.204 175.26L293.664 182.107" stroke="#793CFF" stroke-width="3.87796" stroke-linecap="round"/>
<path d="M361.664 154.107L382.204 160.954C382.352 161.003 382.352 161.211 382.204 161.26L362.124 167.954C361.977 168.003 361.977 168.211 362.124 168.26L382.204 174.954C382.352 175.003 382.352 175.211 382.204 175.26L361.664 182.107" stroke="#793CFF" stroke-width="3.87796" stroke-linecap="round"/>
<path d="M429.664 154.107L450.204 160.954C450.352 161.003 450.352 161.211 450.204 161.26L430.124 167.954C429.977 168.003 429.977 168.211 430.124 168.26L450.204 174.954C450.352 175.003 450.352 175.211 450.204 175.26L429.664 182.107" stroke="#793CFF" stroke-width="3.87796" stroke-linecap="round"/>
<path d="M497.664 154.107L518.204 160.954C518.352 161.003 518.352 161.211 518.204 161.26L498.124 167.954C497.977 168.003 497.977 168.211 498.124 168.26L518.204 174.954C518.352 175.003 518.352 175.211 518.204 175.26L497.664 182.107" stroke="#793CFF" stroke-width="3.87796" stroke-linecap="round"/>
<path d="M565.664 154.107L586.204 160.954C586.352 161.003 586.352 161.211 586.204 161.26L566.124 167.954C565.977 168.003 565.977 168.211 566.124 168.26L586.204 174.954C586.352 175.003 586.352 175.211 586.204 175.26L565.664 182.107" stroke="#793CFF" stroke-width="3.87796" stroke-linecap="round"/>
<path d="M633.664 154.107L654.204 160.954C654.352 161.003 654.352 161.211 654.204 161.26L634.124 167.954C633.977 168.003 633.977 168.211 634.124 168.26L654.204 174.954C654.352 175.003 654.352 175.211 654.204 175.26L633.664 182.107" stroke="#793CFF" stroke-width="3.87796" stroke-linecap="round"/>
<path d="M701.664 154.107L722.204 160.954C722.352 161.003 722.352 161.211 722.204 161.26L702.124 167.954C701.977 168.003 701.977 168.211 702.124 168.26L722.204 174.954C722.352 175.003 722.352 175.211 722.204 175.26L701.664 182.107" stroke="#793CFF" stroke-width="3.87796" stroke-linecap="round"/>
<path d="M769.664 154.107L790.204 160.954C790.352 161.003 790.352 161.211 790.204 161.26L770.124 167.954C769.977 168.003 769.977 168.211 770.124 168.26L790.204 174.954C790.352 175.003 790.352 175.211 790.204 175.26L769.664 182.107" stroke="#793CFF" stroke-width="3.87796" stroke-linecap="round"/>
<path d="M837.664 154.107L858.204 160.954C858.352 161.003 858.352 161.211 858.204 161.26L838.124 167.954C837.977 168.003 837.977 168.211 838.124 168.26L858.204 174.954C858.352 175.003 858.352 175.211 858.204 175.26L837.664 182.107" stroke="#793CFF" stroke-width="3.87796" stroke-linecap="round"/>
<path d="M905.664 154.107L926.204 160.954C926.352 161.003 926.352 161.211 926.204 161.26L906.124 167.954C905.977 168.003 905.977 168.211 906.124 168.26L926.204 174.954C926.352 175.003 926.352 175.211 926.204 175.26L905.664 182.107" stroke="#793CFF" stroke-width="3.87796" stroke-linecap="round"/>
<path d="M973.664 154.107L994.204 160.954C994.352 161.003 994.352 161.211 994.204 161.26L974.124 167.954C973.977 168.003 973.977 168.211 974.124 168.26L994.204 174.954C994.352 175.003 994.352 175.211 994.204 175.26L973.664 182.107" stroke="#793CFF" stroke-width="3.87796" stroke-linecap="round"/>
<path d="M1041.66 154.107L1062.2 160.954C1062.35 161.003 1062.35 161.211 1062.2 161.26L1042.12 167.954C1041.98 168.003 1041.98 168.211 1042.12 168.26L1062.2 174.954C1062.35 175.003 1062.35 175.211 1062.2 175.26L1041.66 182.107" stroke="#793CFF" stroke-width="3.87796" stroke-linecap="round"/>
<path d="M21.6641 222.107L42.2042 228.954C42.3515 229.003 42.3515 229.211 42.2042 229.26L22.1239 235.954C21.9766 236.003 21.9766 236.211 22.1239 236.26L42.2042 242.954C42.3515 243.003 42.3515 243.211 42.2042 243.26L21.6641 250.107" stroke="#793CFF" stroke-width="3.87796" stroke-linecap="round"/>
<path d="M89.6641 222.107L110.204 228.954C110.352 229.003 110.352 229.211 110.204 229.26L90.1239 235.954C89.9766 236.003 89.9766 236.211 90.1239 236.26L110.204 242.954C110.352 243.003 110.352 243.211 110.204 243.26L89.6641 250.107" stroke="#793CFF" stroke-width="3.87796" stroke-linecap="round"/>
<path d="M157.664 222.107L178.204 228.954C178.352 229.003 178.352 229.211 178.204 229.26L158.124 235.954C157.977 236.003 157.977 236.211 158.124 236.26L178.204 242.954C178.352 243.003 178.352 243.211 178.204 243.26L157.664 250.107" stroke="#793CFF" stroke-width="3.87796" stroke-linecap="round"/>
<path d="M225.664 222.107L246.204 228.954C246.352 229.003 246.352 229.211 246.204 229.26L226.124 235.954C225.977 236.003 225.977 236.211 226.124 236.26L246.204 242.954C246.352 243.003 246.352 243.211 246.204 243.26L225.664 250.107" stroke="#793CFF" stroke-width="3.87796" stroke-linecap="round"/>
<path d="M293.664 222.107L314.204 228.954C314.352 229.003 314.352 229.211 314.204 229.26L294.124 235.954C293.977 236.003 293.977 236.211 294.124 236.26L314.204 242.954C314.352 243.003 314.352 243.211 314.204 243.26L293.664 250.107" stroke="#793CFF" stroke-width="3.87796" stroke-linecap="round"/>
<path d="M361.664 222.107L382.204 228.954C382.352 229.003 382.352 229.211 382.204 229.26L362.124 235.954C361.977 236.003 361.977 236.211 362.124 236.26L382.204 242.954C382.352 243.003 382.352 243.211 382.204 243.26L361.664 250.107" stroke="#793CFF" stroke-width="3.87796" stroke-linecap="round"/>
<path d="M429.664 222.107L450.204 228.954C450.352 229.003 450.352 229.211 450.204 229.26L430.124 235.954C429.977 236.003 429.977 236.211 430.124 236.26L450.204 242.954C450.352 243.003 450.352 243.211 450.204 243.26L429.664 250.107" stroke="#793CFF" stroke-width="3.87796" stroke-linecap="round"/>
<path d="M497.664 222.107L518.204 228.954C518.352 229.003 518.352 229.211 518.204 229.26L498.124 235.954C497.977 236.003 497.977 236.211 498.124 236.26L518.204 242.954C518.352 243.003 518.352 243.211 518.204 243.26L497.664 250.107" stroke="#793CFF" stroke-width="3.87796" stroke-linecap="round"/>
<path d="M565.664 222.107L586.204 228.954C586.352 229.003 586.352 229.211 586.204 229.26L566.124 235.954C565.977 236.003 565.977 236.211 566.124 236.26L586.204 242.954C586.352 243.003 586.352 243.211 586.204 243.26L565.664 250.107" stroke="#793CFF" stroke-width="3.87796" stroke-linecap="round"/>
<path d="M633.664 222.107L654.204 228.954C654.352 229.003 654.352 229.211 654.204 229.26L634.124 235.954C633.977 236.003 633.977 236.211 634.124 236.26L654.204 242.954C654.352 243.003 654.352 243.211 654.204 243.26L633.664 250.107" stroke="#793CFF" stroke-width="3.87796" stroke-linecap="round"/>
<path d="M701.664 222.107L722.204 228.954C722.352 229.003 722.352 229.211 722.204 229.26L702.124 235.954C701.977 236.003 701.977 236.211 702.124 236.26L722.204 242.954C722.352 243.003 722.352 243.211 722.204 243.26L701.664 250.107" stroke="#793CFF" stroke-width="3.87796" stroke-linecap="round"/>
<path d="M769.664 222.107L790.204 228.954C790.352 229.003 790.352 229.211 790.204 229.26L770.124 235.954C769.977 236.003 769.977 236.211 770.124 236.26L790.204 242.954C790.352 243.003 790.352 243.211 790.204 243.26L769.664 250.107" stroke="#793CFF" stroke-width="3.87796" stroke-linecap="round"/>
<path d="M837.664 222.107L858.204 228.954C858.352 229.003 858.352 229.211 858.204 229.26L838.124 235.954C837.977 236.003 837.977 236.211 838.124 236.26L858.204 242.954C858.352 243.003 858.352 243.211 858.204 243.26L837.664 250.107" stroke="#793CFF" stroke-width="3.87796" stroke-linecap="round"/>
<path d="M905.664 222.107L926.204 228.954C926.352 229.003 926.352 229.211 926.204 229.26L906.124 235.954C905.977 236.003 905.977 236.211 906.124 236.26L926.204 242.954C926.352 243.003 926.352 243.211 926.204 243.26L905.664 250.107" stroke="#793CFF" stroke-width="3.87796" stroke-linecap="round"/>
<path d="M973.664 222.107L994.204 228.954C994.352 229.003 994.352 229.211 994.204 229.26L974.124 235.954C973.977 236.003 973.977 236.211 974.124 236.26L994.204 242.954C994.352 243.003 994.352 243.211 994.204 243.26L973.664 250.107" stroke="#793CFF" stroke-width="3.87796" stroke-linecap="round"/>
<path d="M1041.66 222.107L1062.2 228.954C1062.35 229.003 1062.35 229.211 1062.2 229.26L1042.12 235.954C1041.98 236.003 1041.98 236.211 1042.12 236.26L1062.2 242.954C1062.35 243.003 1062.35 243.211 1062.2 243.26L1041.66 250.107" stroke="#793CFF" stroke-width="3.87796" stroke-linecap="round"/>
<path d="M21.6641 290.107L42.2042 296.954C42.3515 297.003 42.3515 297.211 42.2042 297.26L22.1239 303.954C21.9766 304.003 21.9766 304.211 22.1239 304.26L42.2042 310.954C42.3515 311.003 42.3515 311.211 42.2042 311.26L21.6641 318.107" stroke="#793CFF" stroke-width="3.87796" stroke-linecap="round"/>
<path d="M89.6641 290.107L110.204 296.954C110.352 297.003 110.352 297.211 110.204 297.26L90.1239 303.954C89.9766 304.003 89.9766 304.211 90.1239 304.26L110.204 310.954C110.352 311.003 110.352 311.211 110.204 311.26L89.6641 318.107" stroke="#793CFF" stroke-width="3.87796" stroke-linecap="round"/>
<path d="M157.664 290.107L178.204 296.954C178.352 297.003 178.352 297.211 178.204 297.26L158.124 303.954C157.977 304.003 157.977 304.211 158.124 304.26L178.204 310.954C178.352 311.003 178.352 311.211 178.204 311.26L157.664 318.107" stroke="#793CFF" stroke-width="3.87796" stroke-linecap="round"/>
<path d="M225.664 290.107L246.204 296.954C246.352 297.003 246.352 297.211 246.204 297.26L226.124 303.954C225.977 304.003 225.977 304.211 226.124 304.26L246.204 310.954C246.352 311.003 246.352 311.211 246.204 311.26L225.664 318.107" stroke="#793CFF" stroke-width="3.87796" stroke-linecap="round"/>
<path d="M293.664 290.107L314.204 296.954C314.352 297.003 314.352 297.211 314.204 297.26L294.124 303.954C293.977 304.003 293.977 304.211 294.124 304.26L314.204 310.954C314.352 311.003 314.352 311.211 314.204 311.26L293.664 318.107" stroke="#793CFF" stroke-width="3.87796" stroke-linecap="round"/>
<path d="M361.664 290.107L382.204 296.954C382.352 297.003 382.352 297.211 382.204 297.26L362.124 303.954C361.977 304.003 361.977 304.211 362.124 304.26L382.204 310.954C382.352 311.003 382.352 311.211 382.204 311.26L361.664 318.107" stroke="#793CFF" stroke-width="3.87796" stroke-linecap="round"/>
<path d="M429.664 290.107L450.204 296.954C450.352 297.003 450.352 297.211 450.204 297.26L430.124 303.954C429.977 304.003 429.977 304.211 430.124 304.26L450.204 310.954C450.352 311.003 450.352 311.211 450.204 311.26L429.664 318.107" stroke="#793CFF" stroke-width="3.87796" stroke-linecap="round"/>
<path d="M497.664 290.107L518.204 296.954C518.352 297.003 518.352 297.211 518.204 297.26L498.124 303.954C497.977 304.003 497.977 304.211 498.124 304.26L518.204 310.954C518.352 311.003 518.352 311.211 518.204 311.26L497.664 318.107" stroke="#793CFF" stroke-width="3.87796" stroke-linecap="round"/>
<path d="M565.664 290.107L586.204 296.954C586.352 297.003 586.352 297.211 586.204 297.26L566.124 303.954C565.977 304.003 565.977 304.211 566.124 304.26L586.204 310.954C586.352 311.003 586.352 311.211 586.204 311.26L565.664 318.107" stroke="#793CFF" stroke-width="3.87796" stroke-linecap="round"/>
<path d="M633.664 290.107L654.204 296.954C654.352 297.003 654.352 297.211 654.204 297.26L634.124 303.954C633.977 304.003 633.977 304.211 634.124 304.26L654.204 310.954C654.352 311.003 654.352 311.211 654.204 311.26L633.664 318.107" stroke="#793CFF" stroke-width="3.87796" stroke-linecap="round"/>
<path d="M701.664 290.107L722.204 296.954C722.352 297.003 722.352 297.211 722.204 297.26L702.124 303.954C701.977 304.003 701.977 304.211 702.124 304.26L722.204 310.954C722.352 311.003 722.352 311.211 722.204 311.26L701.664 318.107" stroke="#793CFF" stroke-width="3.87796" stroke-linecap="round"/>
<path d="M769.664 290.107L790.204 296.954C790.352 297.003 790.352 297.211 790.204 297.26L770.124 303.954C769.977 304.003 769.977 304.211 770.124 304.26L790.204 310.954C790.352 311.003 790.352 311.211 790.204 311.26L769.664 318.107" stroke="#793CFF" stroke-width="3.87796" stroke-linecap="round"/>
<path d="M837.664 290.107L858.204 296.954C858.352 297.003 858.352 297.211 858.204 297.26L838.124 303.954C837.977 304.003 837.977 304.211 838.124 304.26L858.204 310.954C858.352 311.003 858.352 311.211 858.204 311.26L837.664 318.107" stroke="#793CFF" stroke-width="3.87796" stroke-linecap="round"/>
<path d="M905.664 290.107L926.204 296.954C926.352 297.003 926.352 297.211 926.204 297.26L906.124 303.954C905.977 304.003 905.977 304.211 906.124 304.26L926.204 310.954C926.352 311.003 926.352 311.211 926.204 311.26L905.664 318.107" stroke="#793CFF" stroke-width="3.87796" stroke-linecap="round"/>
<path d="M973.664 290.107L994.204 296.954C994.352 297.003 994.352 297.211 994.204 297.26L974.124 303.954C973.977 304.003 973.977 304.211 974.124 304.26L994.204 310.954C994.352 311.003 994.352 311.211 994.204 311.26L973.664 318.107" stroke="#793CFF" stroke-width="3.87796" stroke-linecap="round"/>
<path d="M1041.66 290.107L1062.2 296.954C1062.35 297.003 1062.35 297.211 1062.2 297.26L1042.12 303.954C1041.98 304.003 1041.98 304.211 1042.12 304.26L1062.2 310.954C1062.35 311.003 1062.35 311.211 1062.2 311.26L1041.66 318.107" stroke="#793CFF" stroke-width="3.87796" stroke-linecap="round"/>
<path d="M21.6641 358.107L42.2042 364.954C42.3515 365.003 42.3515 365.211 42.2042 365.26L22.1239 371.954C21.9766 372.003 21.9766 372.211 22.1239 372.26L42.2042 378.954C42.3515 379.003 42.3515 379.211 42.2042 379.26L21.6641 386.107" stroke="#793CFF" stroke-width="3.87796" stroke-linecap="round"/>
<path d="M89.6641 358.107L110.204 364.954C110.352 365.003 110.352 365.211 110.204 365.26L90.1239 371.954C89.9766 372.003 89.9766 372.211 90.1239 372.26L110.204 378.954C110.352 379.003 110.352 379.211 110.204 379.26L89.6641 386.107" stroke="#793CFF" stroke-width="3.87796" stroke-linecap="round"/>
<path d="M157.664 358.107L178.204 364.954C178.352 365.003 178.352 365.211 178.204 365.26L158.124 371.954C157.977 372.003 157.977 372.211 158.124 372.26L178.204 378.954C178.352 379.003 178.352 379.211 178.204 379.26L157.664 386.107" stroke="#793CFF" stroke-width="3.87796" stroke-linecap="round"/>
<path d="M225.664 358.107L246.204 364.954C246.352 365.003 246.352 365.211 246.204 365.26L226.124 371.954C225.977 372.003 225.977 372.211 226.124 372.26L246.204 378.954C246.352 379.003 246.352 379.211 246.204 379.26L225.664 386.107" stroke="#793CFF" stroke-width="3.87796" stroke-linecap="round"/>
<path d="M293.664 358.107L314.204 364.954C314.352 365.003 314.352 365.211 314.204 365.26L294.124 371.954C293.977 372.003 293.977 372.211 294.124 372.26L314.204 378.954C314.352 379.003 314.352 379.211 314.204 379.26L293.664 386.107" stroke="#793CFF" stroke-width="3.87796" stroke-linecap="round"/>
<path d="M361.664 358.107L382.204 364.954C382.352 365.003 382.352 365.211 382.204 365.26L362.124 371.954C361.977 372.003 361.977 372.211 362.124 372.26L382.204 378.954C382.352 379.003 382.352 379.211 382.204 379.26L361.664 386.107" stroke="#793CFF" stroke-width="3.87796" stroke-linecap="round"/>
<path d="M429.664 358.107L450.204 364.954C450.352 365.003 450.352 365.211 450.204 365.26L430.124 371.954C429.977 372.003 429.977 372.211 430.124 372.26L450.204 378.954C450.352 379.003 450.352 379.211 450.204 379.26L429.664 386.107" stroke="#793CFF" stroke-width="3.87796" stroke-linecap="round"/>
<path d="M497.664 358.107L518.204 364.954C518.352 365.003 518.352 365.211 518.204 365.26L498.124 371.954C497.977 372.003 497.977 372.211 498.124 372.26L518.204 378.954C518.352 379.003 518.352 379.211 518.204 379.26L497.664 386.107" stroke="#793CFF" stroke-width="3.87796" stroke-linecap="round"/>
<path d="M565.664 358.107L586.204 364.954C586.352 365.003 586.352 365.211 586.204 365.26L566.124 371.954C565.977 372.003 565.977 372.211 566.124 372.26L586.204 378.954C586.352 379.003 586.352 379.211 586.204 379.26L565.664 386.107" stroke="#793CFF" stroke-width="3.87796" stroke-linecap="round"/>
<path d="M633.664 358.107L654.204 364.954C654.352 365.003 654.352 365.211 654.204 365.26L634.124 371.954C633.977 372.003 633.977 372.211 634.124 372.26L654.204 378.954C654.352 379.003 654.352 379.211 654.204 379.26L633.664 386.107" stroke="#793CFF" stroke-width="3.87796" stroke-linecap="round"/>
<path d="M701.664 358.107L722.204 364.954C722.352 365.003 722.352 365.211 722.204 365.26L702.124 371.954C701.977 372.003 701.977 372.211 702.124 372.26L722.204 378.954C722.352 379.003 722.352 379.211 722.204 379.26L701.664 386.107" stroke="#793CFF" stroke-width="3.87796" stroke-linecap="round"/>
<path d="M769.664 358.107L790.204 364.954C790.352 365.003 790.352 365.211 790.204 365.26L770.124 371.954C769.977 372.003 769.977 372.211 770.124 372.26L790.204 378.954C790.352 379.003 790.352 379.211 790.204 379.26L769.664 386.107" stroke="#793CFF" stroke-width="3.87796" stroke-linecap="round"/>
<path d="M837.664 358.107L858.204 364.954C858.352 365.003 858.352 365.211 858.204 365.26L838.124 371.954C837.977 372.003 837.977 372.211 838.124 372.26L858.204 378.954C858.352 379.003 858.352 379.211 858.204 379.26L837.664 386.107" stroke="#793CFF" stroke-width="3.87796" stroke-linecap="round"/>
<path d="M905.664 358.107L926.204 364.954C926.352 365.003 926.352 365.211 926.204 365.26L906.124 371.954C905.977 372.003 905.977 372.211 906.124 372.26L926.204 378.954C926.352 379.003 926.352 379.211 926.204 379.26L905.664 386.107" stroke="#793CFF" stroke-width="3.87796" stroke-linecap="round"/>
<path d="M973.664 358.107L994.204 364.954C994.352 365.003 994.352 365.211 994.204 365.26L974.124 371.954C973.977 372.003 973.977 372.211 974.124 372.26L994.204 378.954C994.352 379.003 994.352 379.211 994.204 379.26L973.664 386.107" stroke="#793CFF" stroke-width="3.87796" stroke-linecap="round"/>
<path d="M1041.66 358.107L1062.2 364.954C1062.35 365.003 1062.35 365.211 1062.2 365.26L1042.12 371.954C1041.98 372.003 1041.98 372.211 1042.12 372.26L1062.2 378.954C1062.35 379.003 1062.35 379.211 1062.2 379.26L1041.66 386.107" stroke="#793CFF" stroke-width="3.87796" stroke-linecap="round"/>
<path d="M21.6641 426.107L42.2042 432.954C42.3515 433.003 42.3515 433.211 42.2042 433.26L22.1239 439.954C21.9766 440.003 21.9766 440.211 22.1239 440.26L42.2042 446.954C42.3515 447.003 42.3515 447.211 42.2042 447.26L21.6641 454.107" stroke="#793CFF" stroke-width="3.87796" stroke-linecap="round"/>
<path d="M89.6641 426.107L110.204 432.954C110.352 433.003 110.352 433.211 110.204 433.26L90.1239 439.954C89.9766 440.003 89.9766 440.211 90.1239 440.26L110.204 446.954C110.352 447.003 110.352 447.211 110.204 447.26L89.6641 454.107" stroke="#793CFF" stroke-width="3.87796" stroke-linecap="round"/>
<path d="M157.664 426.107L178.204 432.954C178.352 433.003 178.352 433.211 178.204 433.26L158.124 439.954C157.977 440.003 157.977 440.211 158.124 440.26L178.204 446.954C178.352 447.003 178.352 447.211 178.204 447.26L157.664 454.107" stroke="#793CFF" stroke-width="3.87796" stroke-linecap="round"/>
<path d="M225.664 426.107L246.204 432.954C246.352 433.003 246.352 433.211 246.204 433.26L226.124 439.954C225.977 440.003 225.977 440.211 226.124 440.26L246.204 446.954C246.352 447.003 246.352 447.211 246.204 447.26L225.664 454.107" stroke="#793CFF" stroke-width="3.87796" stroke-linecap="round"/>
<path d="M293.664 426.107L314.204 432.954C314.352 433.003 314.352 433.211 314.204 433.26L294.124 439.954C293.977 440.003 293.977 440.211 294.124 440.26L314.204 446.954C314.352 447.003 314.352 447.211 314.204 447.26L293.664 454.107" stroke="#793CFF" stroke-width="3.87796" stroke-linecap="round"/>
<path d="M361.664 426.107L382.204 432.954C382.352 433.003 382.352 433.211 382.204 433.26L362.124 439.954C361.977 440.003 361.977 440.211 362.124 440.26L382.204 446.954C382.352 447.003 382.352 447.211 382.204 447.26L361.664 454.107" stroke="#793CFF" stroke-width="3.87796" stroke-linecap="round"/>
<path d="M429.664 426.107L450.204 432.954C450.352 433.003 450.352 433.211 450.204 433.26L430.124 439.954C429.977 440.003 429.977 440.211 430.124 440.26L450.204 446.954C450.352 447.003 450.352 447.211 450.204 447.26L429.664 454.107" stroke="#793CFF" stroke-width="3.87796" stroke-linecap="round"/>
<path d="M497.664 426.107L518.204 432.954C518.352 433.003 518.352 433.211 518.204 433.26L498.124 439.954C497.977 440.003 497.977 440.211 498.124 440.26L518.204 446.954C518.352 447.003 518.352 447.211 518.204 447.26L497.664 454.107" stroke="#793CFF" stroke-width="3.87796" stroke-linecap="round"/>
<path d="M565.664 426.107L586.204 432.954C586.352 433.003 586.352 433.211 586.204 433.26L566.124 439.954C565.977 440.003 565.977 440.211 566.124 440.26L586.204 446.954C586.352 447.003 586.352 447.211 586.204 447.26L565.664 454.107" stroke="#793CFF" stroke-width="3.87796" stroke-linecap="round"/>
<path d="M633.664 426.107L654.204 432.954C654.352 433.003 654.352 433.211 654.204 433.26L634.124 439.954C633.977 440.003 633.977 440.211 634.124 440.26L654.204 446.954C654.352 447.003 654.352 447.211 654.204 447.26L633.664 454.107" stroke="#793CFF" stroke-width="3.87796" stroke-linecap="round"/>
<path d="M701.664 426.107L722.204 432.954C722.352 433.003 722.352 433.211 722.204 433.26L702.124 439.954C701.977 440.003 701.977 440.211 702.124 440.26L722.204 446.954C722.352 447.003 722.352 447.211 722.204 447.26L701.664 454.107" stroke="#793CFF" stroke-width="3.87796" stroke-linecap="round"/>
<path d="M769.664 426.107L790.204 432.954C790.352 433.003 790.352 433.211 790.204 433.26L770.124 439.954C769.977 440.003 769.977 440.211 770.124 440.26L790.204 446.954C790.352 447.003 790.352 447.211 790.204 447.26L769.664 454.107" stroke="#793CFF" stroke-width="3.87796" stroke-linecap="round"/>
<path d="M837.664 426.107L858.204 432.954C858.352 433.003 858.352 433.211 858.204 433.26L838.124 439.954C837.977 440.003 837.977 440.211 838.124 440.26L858.204 446.954C858.352 447.003 858.352 447.211 858.204 447.26L837.664 454.107" stroke="#793CFF" stroke-width="3.87796" stroke-linecap="round"/>
<path d="M905.664 426.107L926.204 432.954C926.352 433.003 926.352 433.211 926.204 433.26L906.124 439.954C905.977 440.003 905.977 440.211 906.124 440.26L926.204 446.954C926.352 447.003 926.352 447.211 926.204 447.26L905.664 454.107" stroke="#793CFF" stroke-width="3.87796" stroke-linecap="round"/>
<path d="M973.664 426.107L994.204 432.954C994.352 433.003 994.352 433.211 994.204 433.26L974.124 439.954C973.977 440.003 973.977 440.211 974.124 440.26L994.204 446.954C994.352 447.003 994.352 447.211 994.204 447.26L973.664 454.107" stroke="#793CFF" stroke-width="3.87796" stroke-linecap="round"/>
<path d="M1041.66 426.107L1062.2 432.954C1062.35 433.003 1062.35 433.211 1062.2 433.26L1042.12 439.954C1041.98 440.003 1041.98 440.211 1042.12 440.26L1062.2 446.954C1062.35 447.003 1062.35 447.211 1062.2 447.26L1041.66 454.107" stroke="#793CFF" stroke-width="3.87796" stroke-linecap="round"/>
<path d="M21.6641 494.107L42.2042 500.954C42.3515 501.003 42.3515 501.211 42.2042 501.26L22.1239 507.954C21.9766 508.003 21.9766 508.211 22.1239 508.26L42.2042 514.954C42.3515 515.003 42.3515 515.211 42.2042 515.26L21.6641 522.107" stroke="#793CFF" stroke-width="3.87796" stroke-linecap="round"/>
<path d="M89.6641 494.107L110.204 500.954C110.352 501.003 110.352 501.211 110.204 501.26L90.1239 507.954C89.9766 508.003 89.9766 508.211 90.1239 508.26L110.204 514.954C110.352 515.003 110.352 515.211 110.204 515.26L89.6641 522.107" stroke="#793CFF" stroke-width="3.87796" stroke-linecap="round"/>
<path d="M157.664 494.107L178.204 500.954C178.352 501.003 178.352 501.211 178.204 501.26L158.124 507.954C157.977 508.003 157.977 508.211 158.124 508.26L178.204 514.954C178.352 515.003 178.352 515.211 178.204 515.26L157.664 522.107" stroke="#793CFF" stroke-width="3.87796" stroke-linecap="round"/>
<path d="M225.664 494.107L246.204 500.954C246.352 501.003 246.352 501.211 246.204 501.26L226.124 507.954C225.977 508.003 225.977 508.211 226.124 508.26L246.204 514.954C246.352 515.003 246.352 515.211 246.204 515.26L225.664 522.107" stroke="#793CFF" stroke-width="3.87796" stroke-linecap="round"/>
<path d="M293.664 494.107L314.204 500.954C314.352 501.003 314.352 501.211 314.204 501.26L294.124 507.954C293.977 508.003 293.977 508.211 294.124 508.26L314.204 514.954C314.352 515.003 314.352 515.211 314.204 515.26L293.664 522.107" stroke="#793CFF" stroke-width="3.87796" stroke-linecap="round"/>
<path d="M361.664 494.107L382.204 500.954C382.352 501.003 382.352 501.211 382.204 501.26L362.124 507.954C361.977 508.003 361.977 508.211 362.124 508.26L382.204 514.954C382.352 515.003 382.352 515.211 382.204 515.26L361.664 522.107" stroke="#793CFF" stroke-width="3.87796" stroke-linecap="round"/>
<path d="M429.664 494.107L450.204 500.954C450.352 501.003 450.352 501.211 450.204 501.26L430.124 507.954C429.977 508.003 429.977 508.211 430.124 508.26L450.204 514.954C450.352 515.003 450.352 515.211 450.204 515.26L429.664 522.107" stroke="#793CFF" stroke-width="3.87796" stroke-linecap="round"/>
<path d="M497.664 494.107L518.204 500.954C518.352 501.003 518.352 501.211 518.204 501.26L498.124 507.954C497.977 508.003 497.977 508.211 498.124 508.26L518.204 514.954C518.352 515.003 518.352 515.211 518.204 515.26L497.664 522.107" stroke="#793CFF" stroke-width="3.87796" stroke-linecap="round"/>
<path d="M565.664 494.107L586.204 500.954C586.352 501.003 586.352 501.211 586.204 501.26L566.124 507.954C565.977 508.003 565.977 508.211 566.124 508.26L586.204 514.954C586.352 515.003 586.352 515.211 586.204 515.26L565.664 522.107" stroke="#793CFF" stroke-width="3.87796" stroke-linecap="round"/>
<path d="M633.664 494.107L654.204 500.954C654.352 501.003 654.352 501.211 654.204 501.26L634.124 507.954C633.977 508.003 633.977 508.211 634.124 508.26L654.204 514.954C654.352 515.003 654.352 515.211 654.204 515.26L633.664 522.107" stroke="#793CFF" stroke-width="3.87796" stroke-linecap="round"/>
<path d="M701.664 494.107L722.204 500.954C722.352 501.003 722.352 501.211 722.204 501.26L702.124 507.954C701.977 508.003 701.977 508.211 702.124 508.26L722.204 514.954C722.352 515.003 722.352 515.211 722.204 515.26L701.664 522.107" stroke="#793CFF" stroke-width="3.87796" stroke-linecap="round"/>
<path d="M769.664 494.107L790.204 500.954C790.352 501.003 790.352 501.211 790.204 501.26L770.124 507.954C769.977 508.003 769.977 508.211 770.124 508.26L790.204 514.954C790.352 515.003 790.352 515.211 790.204 515.26L769.664 522.107" stroke="#793CFF" stroke-width="3.87796" stroke-linecap="round"/>
<path d="M837.664 494.107L858.204 500.954C858.352 501.003 858.352 501.211 858.204 501.26L838.124 507.954C837.977 508.003 837.977 508.211 838.124 508.26L858.204 514.954C858.352 515.003 858.352 515.211 858.204 515.26L837.664 522.107" stroke="#793CFF" stroke-width="3.87796" stroke-linecap="round"/>
<path d="M905.664 494.107L926.204 500.954C926.352 501.003 926.352 501.211 926.204 501.26L906.124 507.954C905.977 508.003 905.977 508.211 906.124 508.26L926.204 514.954C926.352 515.003 926.352 515.211 926.204 515.26L905.664 522.107" stroke="#793CFF" stroke-width="3.87796" stroke-linecap="round"/>
<path d="M973.664 494.107L994.204 500.954C994.352 501.003 994.352 501.211 994.204 501.26L974.124 507.954C973.977 508.003 973.977 508.211 974.124 508.26L994.204 514.954C994.352 515.003 994.352 515.211 994.204 515.26L973.664 522.107" stroke="#793CFF" stroke-width="3.87796" stroke-linecap="round"/>
<path d="M1041.66 494.107L1062.2 500.954C1062.35 501.003 1062.35 501.211 1062.2 501.26L1042.12 507.954C1041.98 508.003 1041.98 508.211 1042.12 508.26L1062.2 514.954C1062.35 515.003 1062.35 515.211 1062.2 515.26L1041.66 522.107" stroke="#793CFF" stroke-width="3.87796" stroke-linecap="round"/>
<path d="M21.6641 562.107L42.2042 568.954C42.3515 569.003 42.3515 569.211 42.2042 569.26L22.1239 575.954C21.9766 576.003 21.9766 576.211 22.1239 576.26L42.2042 582.954C42.3515 583.003 42.3515 583.211 42.2042 583.26L21.6641 590.107" stroke="#793CFF" stroke-width="3.87796" stroke-linecap="round"/>
<path d="M89.6641 562.107L110.204 568.954C110.352 569.003 110.352 569.211 110.204 569.26L90.1239 575.954C89.9766 576.003 89.9766 576.211 90.1239 576.26L110.204 582.954C110.352 583.003 110.352 583.211 110.204 583.26L89.6641 590.107" stroke="#793CFF" stroke-width="3.87796" stroke-linecap="round"/>
<path d="M157.664 562.107L178.204 568.954C178.352 569.003 178.352 569.211 178.204 569.26L158.124 575.954C157.977 576.003 157.977 576.211 158.124 576.26L178.204 582.954C178.352 583.003 178.352 583.211 178.204 583.26L157.664 590.107" stroke="#793CFF" stroke-width="3.87796" stroke-linecap="round"/>
<path d="M225.664 562.107L246.204 568.954C246.352 569.003 246.352 569.211 246.204 569.26L226.124 575.954C225.977 576.003 225.977 576.211 226.124 576.26L246.204 582.954C246.352 583.003 246.352 583.211 246.204 583.26L225.664 590.107" stroke="#793CFF" stroke-width="3.87796" stroke-linecap="round"/>
<path d="M293.664 562.107L314.204 568.954C314.352 569.003 314.352 569.211 314.204 569.26L294.124 575.954C293.977 576.003 293.977 576.211 294.124 576.26L314.204 582.954C314.352 583.003 314.352 583.211 314.204 583.26L293.664 590.107" stroke="#793CFF" stroke-width="3.87796" stroke-linecap="round"/>
<path d="M361.664 562.107L382.204 568.954C382.352 569.003 382.352 569.211 382.204 569.26L362.124 575.954C361.977 576.003 361.977 576.211 362.124 576.26L382.204 582.954C382.352 583.003 382.352 583.211 382.204 583.26L361.664 590.107" stroke="#793CFF" stroke-width="3.87796" stroke-linecap="round"/>
<path d="M429.664 562.107L450.204 568.954C450.352 569.003 450.352 569.211 450.204 569.26L430.124 575.954C429.977 576.003 429.977 576.211 430.124 576.26L450.204 582.954C450.352 583.003 450.352 583.211 450.204 583.26L429.664 590.107" stroke="#793CFF" stroke-width="3.87796" stroke-linecap="round"/>
<path d="M497.664 562.107L518.204 568.954C518.352 569.003 518.352 569.211 518.204 569.26L498.124 575.954C497.977 576.003 497.977 576.211 498.124 576.26L518.204 582.954C518.352 583.003 518.352 583.211 518.204 583.26L497.664 590.107" stroke="#793CFF" stroke-width="3.87796" stroke-linecap="round"/>
<path d="M565.664 562.107L586.204 568.954C586.352 569.003 586.352 569.211 586.204 569.26L566.124 575.954C565.977 576.003 565.977 576.211 566.124 576.26L586.204 582.954C586.352 583.003 586.352 583.211 586.204 583.26L565.664 590.107" stroke="#793CFF" stroke-width="3.87796" stroke-linecap="round"/>
<path d="M633.664 562.107L654.204 568.954C654.352 569.003 654.352 569.211 654.204 569.26L634.124 575.954C633.977 576.003 633.977 576.211 634.124 576.26L654.204 582.954C654.352 583.003 654.352 583.211 654.204 583.26L633.664 590.107" stroke="#793CFF" stroke-width="3.87796" stroke-linecap="round"/>
<path d="M701.664 562.107L722.204 568.954C722.352 569.003 722.352 569.211 722.204 569.26L702.124 575.954C701.977 576.003 701.977 576.211 702.124 576.26L722.204 582.954C722.352 583.003 722.352 583.211 722.204 583.26L701.664 590.107" stroke="#793CFF" stroke-width="3.87796" stroke-linecap="round"/>
<path d="M769.664 562.107L790.204 568.954C790.352 569.003 790.352 569.211 790.204 569.26L770.124 575.954C769.977 576.003 769.977 576.211 770.124 576.26L790.204 582.954C790.352 583.003 790.352 583.211 790.204 583.26L769.664 590.107" stroke="#793CFF" stroke-width="3.87796" stroke-linecap="round"/>
<path d="M837.664 562.107L858.204 568.954C858.352 569.003 858.352 569.211 858.204 569.26L838.124 575.954C837.977 576.003 837.977 576.211 838.124 576.26L858.204 582.954C858.352 583.003 858.352 583.211 858.204 583.26L837.664 590.107" stroke="#793CFF" stroke-width="3.87796" stroke-linecap="round"/>
<path d="M905.664 562.107L926.204 568.954C926.352 569.003 926.352 569.211 926.204 569.26L906.124 575.954C905.977 576.003 905.977 576.211 906.124 576.26L926.204 582.954C926.352 583.003 926.352 583.211 926.204 583.26L905.664 590.107" stroke="#793CFF" stroke-width="3.87796" stroke-linecap="round"/>
<path d="M973.664 562.107L994.204 568.954C994.352 569.003 994.352 569.211 994.204 569.26L974.124 575.954C973.977 576.003 973.977 576.211 974.124 576.26L994.204 582.954C994.352 583.003 994.352 583.211 994.204 583.26L973.664 590.107" stroke="#793CFF" stroke-width="3.87796" stroke-linecap="round"/>
<path d="M1041.66 562.107L1062.2 568.954C1062.35 569.003 1062.35 569.211 1062.2 569.26L1042.12 575.954C1041.98 576.003 1041.98 576.211 1042.12 576.26L1062.2 582.954C1062.35 583.003 1062.35 583.211 1062.2 583.26L1041.66 590.107" stroke="#793CFF" stroke-width="3.87796" stroke-linecap="round"/>
<path d="M21.6641 630.107L42.2042 636.954C42.3515 637.003 42.3515 637.211 42.2042 637.26L22.1239 643.954C21.9766 644.003 21.9766 644.211 22.1239 644.26L42.2042 650.954C42.3515 651.003 42.3515 651.211 42.2042 651.26L21.6641 658.107" stroke="#793CFF" stroke-width="3.87796" stroke-linecap="round"/>
<path d="M89.6641 630.107L110.204 636.954C110.352 637.003 110.352 637.211 110.204 637.26L90.1239 643.954C89.9766 644.003 89.9766 644.211 90.1239 644.26L110.204 650.954C110.352 651.003 110.352 651.211 110.204 651.26L89.6641 658.107" stroke="#793CFF" stroke-width="3.87796" stroke-linecap="round"/>
<path d="M157.664 630.107L178.204 636.954C178.352 637.003 178.352 637.211 178.204 637.26L158.124 643.954C157.977 644.003 157.977 644.211 158.124 644.26L178.204 650.954C178.352 651.003 178.352 651.211 178.204 651.26L157.664 658.107" stroke="#793CFF" stroke-width="3.87796" stroke-linecap="round"/>
<path d="M225.664 630.107L246.204 636.954C246.352 637.003 246.352 637.211 246.204 637.26L226.124 643.954C225.977 644.003 225.977 644.211 226.124 644.26L246.204 650.954C246.352 651.003 246.352 651.211 246.204 651.26L225.664 658.107" stroke="#793CFF" stroke-width="3.87796" stroke-linecap="round"/>
<path d="M293.664 630.107L314.204 636.954C314.352 637.003 314.352 637.211 314.204 637.26L294.124 643.954C293.977 644.003 293.977 644.211 294.124 644.26L314.204 650.954C314.352 651.003 314.352 651.211 314.204 651.26L293.664 658.107" stroke="#793CFF" stroke-width="3.87796" stroke-linecap="round"/>
<path d="M361.664 630.107L382.204 636.954C382.352 637.003 382.352 637.211 382.204 637.26L362.124 643.954C361.977 644.003 361.977 644.211 362.124 644.26L382.204 650.954C382.352 651.003 382.352 651.211 382.204 651.26L361.664 658.107" stroke="#793CFF" stroke-width="3.87796" stroke-linecap="round"/>
<path d="M429.664 630.107L450.204 636.954C450.352 637.003 450.352 637.211 450.204 637.26L430.124 643.954C429.977 644.003 429.977 644.211 430.124 644.26L450.204 650.954C450.352 651.003 450.352 651.211 450.204 651.26L429.664 658.107" stroke="#793CFF" stroke-width="3.87796" stroke-linecap="round"/>
<path d="M497.664 630.107L518.204 636.954C518.352 637.003 518.352 637.211 518.204 637.26L498.124 643.954C497.977 644.003 497.977 644.211 498.124 644.26L518.204 650.954C518.352 651.003 518.352 651.211 518.204 651.26L497.664 658.107" stroke="#793CFF" stroke-width="3.87796" stroke-linecap="round"/>
<path d="M565.664 630.107L586.204 636.954C586.352 637.003 586.352 637.211 586.204 637.26L566.124 643.954C565.977 644.003 565.977 644.211 566.124 644.26L586.204 650.954C586.352 651.003 586.352 651.211 586.204 651.26L565.664 658.107" stroke="#793CFF" stroke-width="3.87796" stroke-linecap="round"/>
<path d="M633.664 630.107L654.204 636.954C654.352 637.003 654.352 637.211 654.204 637.26L634.124 643.954C633.977 644.003 633.977 644.211 634.124 644.26L654.204 650.954C654.352 651.003 654.352 651.211 654.204 651.26L633.664 658.107" stroke="#793CFF" stroke-width="3.87796" stroke-linecap="round"/>
<path d="M701.664 630.107L722.204 636.954C722.352 637.003 722.352 637.211 722.204 637.26L702.124 643.954C701.977 644.003 701.977 644.211 702.124 644.26L722.204 650.954C722.352 651.003 722.352 651.211 722.204 651.26L701.664 658.107" stroke="#793CFF" stroke-width="3.87796" stroke-linecap="round"/>
<path d="M769.664 630.107L790.204 636.954C790.352 637.003 790.352 637.211 790.204 637.26L770.124 643.954C769.977 644.003 769.977 644.211 770.124 644.26L790.204 650.954C790.352 651.003 790.352 651.211 790.204 651.26L769.664 658.107" stroke="#793CFF" stroke-width="3.87796" stroke-linecap="round"/>
<path d="M837.664 630.107L858.204 636.954C858.352 637.003 858.352 637.211 858.204 637.26L838.124 643.954C837.977 644.003 837.977 644.211 838.124 644.26L858.204 650.954C858.352 651.003 858.352 651.211 858.204 651.26L837.664 658.107" stroke="#793CFF" stroke-width="3.87796" stroke-linecap="round"/>
<path d="M905.664 630.107L926.204 636.954C926.352 637.003 926.352 637.211 926.204 637.26L906.124 643.954C905.977 644.003 905.977 644.211 906.124 644.26L926.204 650.954C926.352 651.003 926.352 651.211 926.204 651.26L905.664 658.107" stroke="#793CFF" stroke-width="3.87796" stroke-linecap="round"/>
<path d="M973.664 630.107L994.204 636.954C994.352 637.003 994.352 637.211 994.204 637.26L974.124 643.954C973.977 644.003 973.977 644.211 974.124 644.26L994.204 650.954C994.352 651.003 994.352 651.211 994.204 651.26L973.664 658.107" stroke="#793CFF" stroke-width="3.87796" stroke-linecap="round"/>
<path d="M1041.66 630.107L1062.2 636.954C1062.35 637.003 1062.35 637.211 1062.2 637.26L1042.12 643.954C1041.98 644.003 1041.98 644.211 1042.12 644.26L1062.2 650.954C1062.35 651.003 1062.35 651.211 1062.2 651.26L1041.66 658.107" stroke="#793CFF" stroke-width="3.87796" stroke-linecap="round"/>
<path d="M21.6641 698.107L42.2042 704.954C42.3515 705.003 42.3515 705.211 42.2042 705.26L22.1239 711.954C21.9766 712.003 21.9766 712.211 22.1239 712.26L42.2042 718.954C42.3515 719.003 42.3515 719.211 42.2042 719.26L21.6641 726.107" stroke="#793CFF" stroke-width="3.87796" stroke-linecap="round"/>
<path d="M89.6641 698.107L110.204 704.954C110.352 705.003 110.352 705.211 110.204 705.26L90.1239 711.954C89.9766 712.003 89.9766 712.211 90.1239 712.26L110.204 718.954C110.352 719.003 110.352 719.211 110.204 719.26L89.6641 726.107" stroke="#793CFF" stroke-width="3.87796" stroke-linecap="round"/>
<path d="M157.664 698.107L178.204 704.954C178.352 705.003 178.352 705.211 178.204 705.26L158.124 711.954C157.977 712.003 157.977 712.211 158.124 712.26L178.204 718.954C178.352 719.003 178.352 719.211 178.204 719.26L157.664 726.107" stroke="#793CFF" stroke-width="3.87796" stroke-linecap="round"/>
<path d="M225.664 698.107L246.204 704.954C246.352 705.003 246.352 705.211 246.204 705.26L226.124 711.954C225.977 712.003 225.977 712.211 226.124 712.26L246.204 718.954C246.352 719.003 246.352 719.211 246.204 719.26L225.664 726.107" stroke="#793CFF" stroke-width="3.87796" stroke-linecap="round"/>
<path d="M293.664 698.107L314.204 704.954C314.352 705.003 314.352 705.211 314.204 705.26L294.124 711.954C293.977 712.003 293.977 712.211 294.124 712.26L314.204 718.954C314.352 719.003 314.352 719.211 314.204 719.26L293.664 726.107" stroke="#793CFF" stroke-width="3.87796" stroke-linecap="round"/>
<path d="M361.664 698.107L382.204 704.954C382.352 705.003 382.352 705.211 382.204 705.26L362.124 711.954C361.977 712.003 361.977 712.211 362.124 712.26L382.204 718.954C382.352 719.003 382.352 719.211 382.204 719.26L361.664 726.107" stroke="#793CFF" stroke-width="3.87796" stroke-linecap="round"/>
<path d="M429.664 698.107L450.204 704.954C450.352 705.003 450.352 705.211 450.204 705.26L430.124 711.954C429.977 712.003 429.977 712.211 430.124 712.26L450.204 718.954C450.352 719.003 450.352 719.211 450.204 719.26L429.664 726.107" stroke="#793CFF" stroke-width="3.87796" stroke-linecap="round"/>
<path d="M497.664 698.107L518.204 704.954C518.352 705.003 518.352 705.211 518.204 705.26L498.124 711.954C497.977 712.003 497.977 712.211 498.124 712.26L518.204 718.954C518.352 719.003 518.352 719.211 518.204 719.26L497.664 726.107" stroke="#793CFF" stroke-width="3.87796" stroke-linecap="round"/>
<path d="M565.664 698.107L586.204 704.954C586.352 705.003 586.352 705.211 586.204 705.26L566.124 711.954C565.977 712.003 565.977 712.211 566.124 712.26L586.204 718.954C586.352 719.003 586.352 719.211 586.204 719.26L565.664 726.107" stroke="#793CFF" stroke-width="3.87796" stroke-linecap="round"/>
<path d="M633.664 698.107L654.204 704.954C654.352 705.003 654.352 705.211 654.204 705.26L634.124 711.954C633.977 712.003 633.977 712.211 634.124 712.26L654.204 718.954C654.352 719.003 654.352 719.211 654.204 719.26L633.664 726.107" stroke="#793CFF" stroke-width="3.87796" stroke-linecap="round"/>
<path d="M701.664 698.107L722.204 704.954C722.352 705.003 722.352 705.211 722.204 705.26L702.124 711.954C701.977 712.003 701.977 712.211 702.124 712.26L722.204 718.954C722.352 719.003 722.352 719.211 722.204 719.26L701.664 726.107" stroke="#793CFF" stroke-width="3.87796" stroke-linecap="round"/>
<path d="M769.664 698.107L790.204 704.954C790.352 705.003 790.352 705.211 790.204 705.26L770.124 711.954C769.977 712.003 769.977 712.211 770.124 712.26L790.204 718.954C790.352 719.003 790.352 719.211 790.204 719.26L769.664 726.107" stroke="#793CFF" stroke-width="3.87796" stroke-linecap="round"/>
<path d="M837.664 698.107L858.204 704.954C858.352 705.003 858.352 705.211 858.204 705.26L838.124 711.954C837.977 712.003 837.977 712.211 838.124 712.26L858.204 718.954C858.352 719.003 858.352 719.211 858.204 719.26L837.664 726.107" stroke="#793CFF" stroke-width="3.87796" stroke-linecap="round"/>
<path d="M905.664 698.107L926.204 704.954C926.352 705.003 926.352 705.211 926.204 705.26L906.124 711.954C905.977 712.003 905.977 712.211 906.124 712.26L926.204 718.954C926.352 719.003 926.352 719.211 926.204 719.26L905.664 726.107" stroke="#793CFF" stroke-width="3.87796" stroke-linecap="round"/>
<path d="M973.664 698.107L994.204 704.954C994.352 705.003 994.352 705.211 994.204 705.26L974.124 711.954C973.977 712.003 973.977 712.211 974.124 712.26L994.204 718.954C994.352 719.003 994.352 719.211 994.204 719.26L973.664 726.107" stroke="#793CFF" stroke-width="3.87796" stroke-linecap="round"/>
<path d="M1041.66 698.107L1062.2 704.954C1062.35 705.003 1062.35 705.211 1062.2 705.26L1042.12 711.954C1041.98 712.003 1041.98 712.211 1042.12 712.26L1062.2 718.954C1062.35 719.003 1062.35 719.211 1062.2 719.26L1041.66 726.107" stroke="#793CFF" stroke-width="3.87796" stroke-linecap="round"/>
<path d="M21.6641 766.107L42.2042 772.954C42.3515 773.003 42.3515 773.211 42.2042 773.26L22.1239 779.954C21.9766 780.003 21.9766 780.211 22.1239 780.26L42.2042 786.954C42.3515 787.003 42.3515 787.211 42.2042 787.26L21.6641 794.107" stroke="#793CFF" stroke-width="3.87796" stroke-linecap="round"/>
<path d="M89.6641 766.107L110.204 772.954C110.352 773.003 110.352 773.211 110.204 773.26L90.1239 779.954C89.9766 780.003 89.9766 780.211 90.1239 780.26L110.204 786.954C110.352 787.003 110.352 787.211 110.204 787.26L89.6641 794.107" stroke="#793CFF" stroke-width="3.87796" stroke-linecap="round"/>
<path d="M157.664 766.107L178.204 772.954C178.352 773.003 178.352 773.211 178.204 773.26L158.124 779.954C157.977 780.003 157.977 780.211 158.124 780.26L178.204 786.954C178.352 787.003 178.352 787.211 178.204 787.26L157.664 794.107" stroke="#793CFF" stroke-width="3.87796" stroke-linecap="round"/>
<path d="M225.664 766.107L246.204 772.954C246.352 773.003 246.352 773.211 246.204 773.26L226.124 779.954C225.977 780.003 225.977 780.211 226.124 780.26L246.204 786.954C246.352 787.003 246.352 787.211 246.204 787.26L225.664 794.107" stroke="#793CFF" stroke-width="3.87796" stroke-linecap="round"/>
<path d="M293.664 766.107L314.204 772.954C314.352 773.003 314.352 773.211 314.204 773.26L294.124 779.954C293.977 780.003 293.977 780.211 294.124 780.26L314.204 786.954C314.352 787.003 314.352 787.211 314.204 787.26L293.664 794.107" stroke="#793CFF" stroke-width="3.87796" stroke-linecap="round"/>
<path d="M361.664 766.107L382.204 772.954C382.352 773.003 382.352 773.211 382.204 773.26L362.124 779.954C361.977 780.003 361.977 780.211 362.124 780.26L382.204 786.954C382.352 787.003 382.352 787.211 382.204 787.26L361.664 794.107" stroke="#793CFF" stroke-width="3.87796" stroke-linecap="round"/>
<path d="M429.664 766.107L450.204 772.954C450.352 773.003 450.352 773.211 450.204 773.26L430.124 779.954C429.977 780.003 429.977 780.211 430.124 780.26L450.204 786.954C450.352 787.003 450.352 787.211 450.204 787.26L429.664 794.107" stroke="#793CFF" stroke-width="3.87796" stroke-linecap="round"/>
<path d="M497.664 766.107L518.204 772.954C518.352 773.003 518.352 773.211 518.204 773.26L498.124 779.954C497.977 780.003 497.977 780.211 498.124 780.26L518.204 786.954C518.352 787.003 518.352 787.211 518.204 787.26L497.664 794.107" stroke="#793CFF" stroke-width="3.87796" stroke-linecap="round"/>
<path d="M565.664 766.107L586.204 772.954C586.352 773.003 586.352 773.211 586.204 773.26L566.124 779.954C565.977 780.003 565.977 780.211 566.124 780.26L586.204 786.954C586.352 787.003 586.352 787.211 586.204 787.26L565.664 794.107" stroke="#793CFF" stroke-width="3.87796" stroke-linecap="round"/>
<path d="M633.664 766.107L654.204 772.954C654.352 773.003 654.352 773.211 654.204 773.26L634.124 779.954C633.977 780.003 633.977 780.211 634.124 780.26L654.204 786.954C654.352 787.003 654.352 787.211 654.204 787.26L633.664 794.107" stroke="#793CFF" stroke-width="3.87796" stroke-linecap="round"/>
<path d="M701.664 766.107L722.204 772.954C722.352 773.003 722.352 773.211 722.204 773.26L702.124 779.954C701.977 780.003 701.977 780.211 702.124 780.26L722.204 786.954C722.352 787.003 722.352 787.211 722.204 787.26L701.664 794.107" stroke="#793CFF" stroke-width="3.87796" stroke-linecap="round"/>
<path d="M769.664 766.107L790.204 772.954C790.352 773.003 790.352 773.211 790.204 773.26L770.124 779.954C769.977 780.003 769.977 780.211 770.124 780.26L790.204 786.954C790.352 787.003 790.352 787.211 790.204 787.26L769.664 794.107" stroke="#793CFF" stroke-width="3.87796" stroke-linecap="round"/>
<path d="M837.664 766.107L858.204 772.954C858.352 773.003 858.352 773.211 858.204 773.26L838.124 779.954C837.977 780.003 837.977 780.211 838.124 780.26L858.204 786.954C858.352 787.003 858.352 787.211 858.204 787.26L837.664 794.107" stroke="#793CFF" stroke-width="3.87796" stroke-linecap="round"/>
<path d="M905.664 766.107L926.204 772.954C926.352 773.003 926.352 773.211 926.204 773.26L906.124 779.954C905.977 780.003 905.977 780.211 906.124 780.26L926.204 786.954C926.352 787.003 926.352 787.211 926.204 787.26L905.664 794.107" stroke="#793CFF" stroke-width="3.87796" stroke-linecap="round"/>
<path d="M973.664 766.107L994.204 772.954C994.352 773.003 994.352 773.211 994.204 773.26L974.124 779.954C973.977 780.003 973.977 780.211 974.124 780.26L994.204 786.954C994.352 787.003 994.352 787.211 994.204 787.26L973.664 794.107" stroke="#793CFF" stroke-width="3.87796" stroke-linecap="round"/>
<path d="M1041.66 766.107L1062.2 772.954C1062.35 773.003 1062.35 773.211 1062.2 773.26L1042.12 779.954C1041.98 780.003 1041.98 780.211 1042.12 780.26L1062.2 786.954C1062.35 787.003 1062.35 787.211 1062.2 787.26L1041.66 794.107" stroke="#793CFF" stroke-width="3.87796" stroke-linecap="round"/>
<path d="M21.6641 834.107L42.2042 840.954C42.3515 841.003 42.3515 841.211 42.2042 841.26L22.1239 847.954C21.9766 848.003 21.9766 848.211 22.1239 848.26L42.2042 854.954C42.3515 855.003 42.3515 855.211 42.2042 855.26L21.6641 862.107" stroke="#793CFF" stroke-width="3.87796" stroke-linecap="round"/>
<path d="M89.6641 834.107L110.204 840.954C110.352 841.003 110.352 841.211 110.204 841.26L90.1239 847.954C89.9766 848.003 89.9766 848.211 90.1239 848.26L110.204 854.954C110.352 855.003 110.352 855.211 110.204 855.26L89.6641 862.107" stroke="#793CFF" stroke-width="3.87796" stroke-linecap="round"/>
<path d="M157.664 834.107L178.204 840.954C178.352 841.003 178.352 841.211 178.204 841.26L158.124 847.954C157.977 848.003 157.977 848.211 158.124 848.26L178.204 854.954C178.352 855.003 178.352 855.211 178.204 855.26L157.664 862.107" stroke="#793CFF" stroke-width="3.87796" stroke-linecap="round"/>
<path d="M225.664 834.107L246.204 840.954C246.352 841.003 246.352 841.211 246.204 841.26L226.124 847.954C225.977 848.003 225.977 848.211 226.124 848.26L246.204 854.954C246.352 855.003 246.352 855.211 246.204 855.26L225.664 862.107" stroke="#793CFF" stroke-width="3.87796" stroke-linecap="round"/>
<path d="M293.664 834.107L314.204 840.954C314.352 841.003 314.352 841.211 314.204 841.26L294.124 847.954C293.977 848.003 293.977 848.211 294.124 848.26L314.204 854.954C314.352 855.003 314.352 855.211 314.204 855.26L293.664 862.107" stroke="#793CFF" stroke-width="3.87796" stroke-linecap="round"/>
<path d="M361.664 834.107L382.204 840.954C382.352 841.003 382.352 841.211 382.204 841.26L362.124 847.954C361.977 848.003 361.977 848.211 362.124 848.26L382.204 854.954C382.352 855.003 382.352 855.211 382.204 855.26L361.664 862.107" stroke="#793CFF" stroke-width="3.87796" stroke-linecap="round"/>
<path d="M429.664 834.107L450.204 840.954C450.352 841.003 450.352 841.211 450.204 841.26L430.124 847.954C429.977 848.003 429.977 848.211 430.124 848.26L450.204 854.954C450.352 855.003 450.352 855.211 450.204 855.26L429.664 862.107" stroke="#793CFF" stroke-width="3.87796" stroke-linecap="round"/>
<path d="M497.664 834.107L518.204 840.954C518.352 841.003 518.352 841.211 518.204 841.26L498.124 847.954C497.977 848.003 497.977 848.211 498.124 848.26L518.204 854.954C518.352 855.003 518.352 855.211 518.204 855.26L497.664 862.107" stroke="#793CFF" stroke-width="3.87796" stroke-linecap="round"/>
<path d="M565.664 834.107L586.204 840.954C586.352 841.003 586.352 841.211 586.204 841.26L566.124 847.954C565.977 848.003 565.977 848.211 566.124 848.26L586.204 854.954C586.352 855.003 586.352 855.211 586.204 855.26L565.664 862.107" stroke="#793CFF" stroke-width="3.87796" stroke-linecap="round"/>
<path d="M633.664 834.107L654.204 840.954C654.352 841.003 654.352 841.211 654.204 841.26L634.124 847.954C633.977 848.003 633.977 848.211 634.124 848.26L654.204 854.954C654.352 855.003 654.352 855.211 654.204 855.26L633.664 862.107" stroke="#793CFF" stroke-width="3.87796" stroke-linecap="round"/>
<path d="M701.664 834.107L722.204 840.954C722.352 841.003 722.352 841.211 722.204 841.26L702.124 847.954C701.977 848.003 701.977 848.211 702.124 848.26L722.204 854.954C722.352 855.003 722.352 855.211 722.204 855.26L701.664 862.107" stroke="#793CFF" stroke-width="3.87796" stroke-linecap="round"/>
<path d="M769.664 834.107L790.204 840.954C790.352 841.003 790.352 841.211 790.204 841.26L770.124 847.954C769.977 848.003 769.977 848.211 770.124 848.26L790.204 854.954C790.352 855.003 790.352 855.211 790.204 855.26L769.664 862.107" stroke="#793CFF" stroke-width="3.87796" stroke-linecap="round"/>
<path d="M837.664 834.107L858.204 840.954C858.352 841.003 858.352 841.211 858.204 841.26L838.124 847.954C837.977 848.003 837.977 848.211 838.124 848.26L858.204 854.954C858.352 855.003 858.352 855.211 858.204 855.26L837.664 862.107" stroke="#793CFF" stroke-width="3.87796" stroke-linecap="round"/>
<path d="M905.664 834.107L926.204 840.954C926.352 841.003 926.352 841.211 926.204 841.26L906.124 847.954C905.977 848.003 905.977 848.211 906.124 848.26L926.204 854.954C926.352 855.003 926.352 855.211 926.204 855.26L905.664 862.107" stroke="#793CFF" stroke-width="3.87796" stroke-linecap="round"/>
<path d="M973.664 834.107L994.204 840.954C994.352 841.003 994.352 841.211 994.204 841.26L974.124 847.954C973.977 848.003 973.977 848.211 974.124 848.26L994.204 854.954C994.352 855.003 994.352 855.211 994.204 855.26L973.664 862.107" stroke="#793CFF" stroke-width="3.87796" stroke-linecap="round"/>
<path d="M1041.66 834.107L1062.2 840.954C1062.35 841.003 1062.35 841.211 1062.2 841.26L1042.12 847.954C1041.98 848.003 1041.98 848.211 1042.12 848.26L1062.2 854.954C1062.35 855.003 1062.35 855.211 1062.2 855.26L1041.66 862.107" stroke="#793CFF" stroke-width="3.87796" stroke-linecap="round"/>
<path d="M21.6641 902.107L42.2042 908.954C42.3515 909.003 42.3515 909.211 42.2042 909.26L22.1239 915.954C21.9766 916.003 21.9766 916.211 22.1239 916.26L42.2042 922.954C42.3515 923.003 42.3515 923.211 42.2042 923.26L21.6641 930.107" stroke="#793CFF" stroke-width="3.87796" stroke-linecap="round"/>
<path d="M89.6641 902.107L110.204 908.954C110.352 909.003 110.352 909.211 110.204 909.26L90.1239 915.954C89.9766 916.003 89.9766 916.211 90.1239 916.26L110.204 922.954C110.352 923.003 110.352 923.211 110.204 923.26L89.6641 930.107" stroke="#793CFF" stroke-width="3.87796" stroke-linecap="round"/>
<path d="M157.664 902.107L178.204 908.954C178.352 909.003 178.352 909.211 178.204 909.26L158.124 915.954C157.977 916.003 157.977 916.211 158.124 916.26L178.204 922.954C178.352 923.003 178.352 923.211 178.204 923.26L157.664 930.107" stroke="#793CFF" stroke-width="3.87796" stroke-linecap="round"/>
<path d="M225.664 902.107L246.204 908.954C246.352 909.003 246.352 909.211 246.204 909.26L226.124 915.954C225.977 916.003 225.977 916.211 226.124 916.26L246.204 922.954C246.352 923.003 246.352 923.211 246.204 923.26L225.664 930.107" stroke="#793CFF" stroke-width="3.87796" stroke-linecap="round"/>
<path d="M293.664 902.107L314.204 908.954C314.352 909.003 314.352 909.211 314.204 909.26L294.124 915.954C293.977 916.003 293.977 916.211 294.124 916.26L314.204 922.954C314.352 923.003 314.352 923.211 314.204 923.26L293.664 930.107" stroke="#793CFF" stroke-width="3.87796" stroke-linecap="round"/>
<path d="M361.664 902.107L382.204 908.954C382.352 909.003 382.352 909.211 382.204 909.26L362.124 915.954C361.977 916.003 361.977 916.211 362.124 916.26L382.204 922.954C382.352 923.003 382.352 923.211 382.204 923.26L361.664 930.107" stroke="#793CFF" stroke-width="3.87796" stroke-linecap="round"/>
<path d="M429.664 902.107L450.204 908.954C450.352 909.003 450.352 909.211 450.204 909.26L430.124 915.954C429.977 916.003 429.977 916.211 430.124 916.26L450.204 922.954C450.352 923.003 450.352 923.211 450.204 923.26L429.664 930.107" stroke="#793CFF" stroke-width="3.87796" stroke-linecap="round"/>
<path d="M497.664 902.107L518.204 908.954C518.352 909.003 518.352 909.211 518.204 909.26L498.124 915.954C497.977 916.003 497.977 916.211 498.124 916.26L518.204 922.954C518.352 923.003 518.352 923.211 518.204 923.26L497.664 930.107" stroke="#793CFF" stroke-width="3.87796" stroke-linecap="round"/>
<path d="M565.664 902.107L586.204 908.954C586.352 909.003 586.352 909.211 586.204 909.26L566.124 915.954C565.977 916.003 565.977 916.211 566.124 916.26L586.204 922.954C586.352 923.003 586.352 923.211 586.204 923.26L565.664 930.107" stroke="#793CFF" stroke-width="3.87796" stroke-linecap="round"/>
<path d="M633.664 902.107L654.204 908.954C654.352 909.003 654.352 909.211 654.204 909.26L634.124 915.954C633.977 916.003 633.977 916.211 634.124 916.26L654.204 922.954C654.352 923.003 654.352 923.211 654.204 923.26L633.664 930.107" stroke="#793CFF" stroke-width="3.87796" stroke-linecap="round"/>
<path d="M701.664 902.107L722.204 908.954C722.352 909.003 722.352 909.211 722.204 909.26L702.124 915.954C701.977 916.003 701.977 916.211 702.124 916.26L722.204 922.954C722.352 923.003 722.352 923.211 722.204 923.26L701.664 930.107" stroke="#793CFF" stroke-width="3.87796" stroke-linecap="round"/>
<path d="M769.664 902.107L790.204 908.954C790.352 909.003 790.352 909.211 790.204 909.26L770.124 915.954C769.977 916.003 769.977 916.211 770.124 916.26L790.204 922.954C790.352 923.003 790.352 923.211 790.204 923.26L769.664 930.107" stroke="#793CFF" stroke-width="3.87796" stroke-linecap="round"/>
<path d="M837.664 902.107L858.204 908.954C858.352 909.003 858.352 909.211 858.204 909.26L838.124 915.954C837.977 916.003 837.977 916.211 838.124 916.26L858.204 922.954C858.352 923.003 858.352 923.211 858.204 923.26L837.664 930.107" stroke="#793CFF" stroke-width="3.87796" stroke-linecap="round"/>
<path d="M905.664 902.107L926.204 908.954C926.352 909.003 926.352 909.211 926.204 909.26L906.124 915.954C905.977 916.003 905.977 916.211 906.124 916.26L926.204 922.954C926.352 923.003 926.352 923.211 926.204 923.26L905.664 930.107" stroke="#793CFF" stroke-width="3.87796" stroke-linecap="round"/>
<path d="M973.664 902.107L994.204 908.954C994.352 909.003 994.352 909.211 994.204 909.26L974.124 915.954C973.977 916.003 973.977 916.211 974.124 916.26L994.204 922.954C994.352 923.003 994.352 923.211 994.204 923.26L973.664 930.107" stroke="#793CFF" stroke-width="3.87796" stroke-linecap="round"/>
<path d="M1041.66 902.107L1062.2 908.954C1062.35 909.003 1062.35 909.211 1062.2 909.26L1042.12 915.954C1041.98 916.003 1041.98 916.211 1042.12 916.26L1062.2 922.954C1062.35 923.003 1062.35 923.211 1062.2 923.26L1041.66 930.107" stroke="#793CFF" stroke-width="3.87796" stroke-linecap="round"/>
<path d="M21.6641 970.107L42.2042 976.954C42.3515 977.003 42.3515 977.211 42.2042 977.26L22.1239 983.954C21.9766 984.003 21.9766 984.211 22.1239 984.26L42.2042 990.954C42.3515 991.003 42.3515 991.211 42.2042 991.26L21.6641 998.107" stroke="#793CFF" stroke-width="3.87796" stroke-linecap="round"/>
<path d="M89.6641 970.107L110.204 976.954C110.352 977.003 110.352 977.211 110.204 977.26L90.1239 983.954C89.9766 984.003 89.9766 984.211 90.1239 984.26L110.204 990.954C110.352 991.003 110.352 991.211 110.204 991.26L89.6641 998.107" stroke="#793CFF" stroke-width="3.87796" stroke-linecap="round"/>
<path d="M157.664 970.107L178.204 976.954C178.352 977.003 178.352 977.211 178.204 977.26L158.124 983.954C157.977 984.003 157.977 984.211 158.124 984.26L178.204 990.954C178.352 991.003 178.352 991.211 178.204 991.26L157.664 998.107" stroke="#793CFF" stroke-width="3.87796" stroke-linecap="round"/>
<path d="M225.664 970.107L246.204 976.954C246.352 977.003 246.352 977.211 246.204 977.26L226.124 983.954C225.977 984.003 225.977 984.211 226.124 984.26L246.204 990.954C246.352 991.003 246.352 991.211 246.204 991.26L225.664 998.107" stroke="#793CFF" stroke-width="3.87796" stroke-linecap="round"/>
<path d="M293.664 970.107L314.204 976.954C314.352 977.003 314.352 977.211 314.204 977.26L294.124 983.954C293.977 984.003 293.977 984.211 294.124 984.26L314.204 990.954C314.352 991.003 314.352 991.211 314.204 991.26L293.664 998.107" stroke="#793CFF" stroke-width="3.87796" stroke-linecap="round"/>
<path d="M361.664 970.107L382.204 976.954C382.352 977.003 382.352 977.211 382.204 977.26L362.124 983.954C361.977 984.003 361.977 984.211 362.124 984.26L382.204 990.954C382.352 991.003 382.352 991.211 382.204 991.26L361.664 998.107" stroke="#793CFF" stroke-width="3.87796" stroke-linecap="round"/>
<path d="M429.664 970.107L450.204 976.954C450.352 977.003 450.352 977.211 450.204 977.26L430.124 983.954C429.977 984.003 429.977 984.211 430.124 984.26L450.204 990.954C450.352 991.003 450.352 991.211 450.204 991.26L429.664 998.107" stroke="#793CFF" stroke-width="3.87796" stroke-linecap="round"/>
<path d="M497.664 970.107L518.204 976.954C518.352 977.003 518.352 977.211 518.204 977.26L498.124 983.954C497.977 984.003 497.977 984.211 498.124 984.26L518.204 990.954C518.352 991.003 518.352 991.211 518.204 991.26L497.664 998.107" stroke="#793CFF" stroke-width="3.87796" stroke-linecap="round"/>
<path d="M565.664 970.107L586.204 976.954C586.352 977.003 586.352 977.211 586.204 977.26L566.124 983.954C565.977 984.003 565.977 984.211 566.124 984.26L586.204 990.954C586.352 991.003 586.352 991.211 586.204 991.26L565.664 998.107" stroke="#793CFF" stroke-width="3.87796" stroke-linecap="round"/>
<path d="M633.664 970.107L654.204 976.954C654.352 977.003 654.352 977.211 654.204 977.26L634.124 983.954C633.977 984.003 633.977 984.211 634.124 984.26L654.204 990.954C654.352 991.003 654.352 991.211 654.204 991.26L633.664 998.107" stroke="#793CFF" stroke-width="3.87796" stroke-linecap="round"/>
<path d="M701.664 970.107L722.204 976.954C722.352 977.003 722.352 977.211 722.204 977.26L702.124 983.954C701.977 984.003 701.977 984.211 702.124 984.26L722.204 990.954C722.352 991.003 722.352 991.211 722.204 991.26L701.664 998.107" stroke="#793CFF" stroke-width="3.87796" stroke-linecap="round"/>
<path d="M769.664 970.107L790.204 976.954C790.352 977.003 790.352 977.211 790.204 977.26L770.124 983.954C769.977 984.003 769.977 984.211 770.124 984.26L790.204 990.954C790.352 991.003 790.352 991.211 790.204 991.26L769.664 998.107" stroke="#793CFF" stroke-width="3.87796" stroke-linecap="round"/>
<path d="M837.664 970.107L858.204 976.954C858.352 977.003 858.352 977.211 858.204 977.26L838.124 983.954C837.977 984.003 837.977 984.211 838.124 984.26L858.204 990.954C858.352 991.003 858.352 991.211 858.204 991.26L837.664 998.107" stroke="#793CFF" stroke-width="3.87796" stroke-linecap="round"/>
<path d="M905.664 970.107L926.204 976.954C926.352 977.003 926.352 977.211 926.204 977.26L906.124 983.954C905.977 984.003 905.977 984.211 906.124 984.26L926.204 990.954C926.352 991.003 926.352 991.211 926.204 991.26L905.664 998.107" stroke="#793CFF" stroke-width="3.87796" stroke-linecap="round"/>
<path d="M973.664 970.107L994.204 976.954C994.352 977.003 994.352 977.211 994.204 977.26L974.124 983.954C973.977 984.003 973.977 984.211 974.124 984.26L994.204 990.954C994.352 991.003 994.352 991.211 994.204 991.26L973.664 998.107" stroke="#793CFF" stroke-width="3.87796" stroke-linecap="round"/>
<path d="M1041.66 970.107L1062.2 976.954C1062.35 977.003 1062.35 977.211 1062.2 977.26L1042.12 983.954C1041.98 984.003 1041.98 984.211 1042.12 984.26L1062.2 990.954C1062.35 991.003 1062.35 991.211 1062.2 991.26L1041.66 998.107" stroke="#793CFF" stroke-width="3.87796" stroke-linecap="round"/>
<path d="M21.6641 1038.11L42.2042 1044.95C42.3515 1045 42.3515 1045.21 42.2042 1045.26L22.1239 1051.95C21.9766 1052 21.9766 1052.21 22.1239 1052.26L42.2042 1058.95C42.3515 1059 42.3515 1059.21 42.2042 1059.26L21.6641 1066.11" stroke="#793CFF" stroke-width="3.87796" stroke-linecap="round"/>
<path d="M89.6641 1038.11L110.204 1044.95C110.352 1045 110.352 1045.21 110.204 1045.26L90.1239 1051.95C89.9766 1052 89.9766 1052.21 90.1239 1052.26L110.204 1058.95C110.352 1059 110.352 1059.21 110.204 1059.26L89.6641 1066.11" stroke="#793CFF" stroke-width="3.87796" stroke-linecap="round"/>
<path d="M157.664 1038.11L178.204 1044.95C178.352 1045 178.352 1045.21 178.204 1045.26L158.124 1051.95C157.977 1052 157.977 1052.21 158.124 1052.26L178.204 1058.95C178.352 1059 178.352 1059.21 178.204 1059.26L157.664 1066.11" stroke="#793CFF" stroke-width="3.87796" stroke-linecap="round"/>
<path d="M225.664 1038.11L246.204 1044.95C246.352 1045 246.352 1045.21 246.204 1045.26L226.124 1051.95C225.977 1052 225.977 1052.21 226.124 1052.26L246.204 1058.95C246.352 1059 246.352 1059.21 246.204 1059.26L225.664 1066.11" stroke="#793CFF" stroke-width="3.87796" stroke-linecap="round"/>
<path d="M293.664 1038.11L314.204 1044.95C314.352 1045 314.352 1045.21 314.204 1045.26L294.124 1051.95C293.977 1052 293.977 1052.21 294.124 1052.26L314.204 1058.95C314.352 1059 314.352 1059.21 314.204 1059.26L293.664 1066.11" stroke="#793CFF" stroke-width="3.87796" stroke-linecap="round"/>
<path d="M361.664 1038.11L382.204 1044.95C382.352 1045 382.352 1045.21 382.204 1045.26L362.124 1051.95C361.977 1052 361.977 1052.21 362.124 1052.26L382.204 1058.95C382.352 1059 382.352 1059.21 382.204 1059.26L361.664 1066.11" stroke="#793CFF" stroke-width="3.87796" stroke-linecap="round"/>
<path d="M429.664 1038.11L450.204 1044.95C450.352 1045 450.352 1045.21 450.204 1045.26L430.124 1051.95C429.977 1052 429.977 1052.21 430.124 1052.26L450.204 1058.95C450.352 1059 450.352 1059.21 450.204 1059.26L429.664 1066.11" stroke="#793CFF" stroke-width="3.87796" stroke-linecap="round"/>
<path d="M497.664 1038.11L518.204 1044.95C518.352 1045 518.352 1045.21 518.204 1045.26L498.124 1051.95C497.977 1052 497.977 1052.21 498.124 1052.26L518.204 1058.95C518.352 1059 518.352 1059.21 518.204 1059.26L497.664 1066.11" stroke="#793CFF" stroke-width="3.87796" stroke-linecap="round"/>
<path d="M565.664 1038.11L586.204 1044.95C586.352 1045 586.352 1045.21 586.204 1045.26L566.124 1051.95C565.977 1052 565.977 1052.21 566.124 1052.26L586.204 1058.95C586.352 1059 586.352 1059.21 586.204 1059.26L565.664 1066.11" stroke="#793CFF" stroke-width="3.87796" stroke-linecap="round"/>
<path d="M633.664 1038.11L654.204 1044.95C654.352 1045 654.352 1045.21 654.204 1045.26L634.124 1051.95C633.977 1052 633.977 1052.21 634.124 1052.26L654.204 1058.95C654.352 1059 654.352 1059.21 654.204 1059.26L633.664 1066.11" stroke="#793CFF" stroke-width="3.87796" stroke-linecap="round"/>
<path d="M701.664 1038.11L722.204 1044.95C722.352 1045 722.352 1045.21 722.204 1045.26L702.124 1051.95C701.977 1052 701.977 1052.21 702.124 1052.26L722.204 1058.95C722.352 1059 722.352 1059.21 722.204 1059.26L701.664 1066.11" stroke="#793CFF" stroke-width="3.87796" stroke-linecap="round"/>
<path d="M769.664 1038.11L790.204 1044.95C790.352 1045 790.352 1045.21 790.204 1045.26L770.124 1051.95C769.977 1052 769.977 1052.21 770.124 1052.26L790.204 1058.95C790.352 1059 790.352 1059.21 790.204 1059.26L769.664 1066.11" stroke="#793CFF" stroke-width="3.87796" stroke-linecap="round"/>
<path d="M837.664 1038.11L858.204 1044.95C858.352 1045 858.352 1045.21 858.204 1045.26L838.124 1051.95C837.977 1052 837.977 1052.21 838.124 1052.26L858.204 1058.95C858.352 1059 858.352 1059.21 858.204 1059.26L837.664 1066.11" stroke="#793CFF" stroke-width="3.87796" stroke-linecap="round"/>
<path d="M905.664 1038.11L926.204 1044.95C926.352 1045 926.352 1045.21 926.204 1045.26L906.124 1051.95C905.977 1052 905.977 1052.21 906.124 1052.26L926.204 1058.95C926.352 1059 926.352 1059.21 926.204 1059.26L905.664 1066.11" stroke="#793CFF" stroke-width="3.87796" stroke-linecap="round"/>
<path d="M973.664 1038.11L994.204 1044.95C994.352 1045 994.352 1045.21 994.204 1045.26L974.124 1051.95C973.977 1052 973.977 1052.21 974.124 1052.26L994.204 1058.95C994.352 1059 994.352 1059.21 994.204 1059.26L973.664 1066.11" stroke="#793CFF" stroke-width="3.87796" stroke-linecap="round"/>
<path d="M1041.66 1038.11L1062.2 1044.95C1062.35 1045 1062.35 1045.21 1062.2 1045.26L1042.12 1051.95C1041.98 1052 1041.98 1052.21 1042.12 1052.26L1062.2 1058.95C1062.35 1059 1062.35 1059.21 1062.2 1059.26L1041.66 1066.11" stroke="#793CFF" stroke-width="3.87796" stroke-linecap="round"/>
</svg>
