<svg
  width="12"
  height="12"
  viewBox="0 0 12 12"
  fill="none"
  xmlns="http://www.w3.org/2000/svg"
>
<path
    d="M5.46706 5.96657H5.96706V5.46657V0.933236C5.96706 0.914828 5.98198 0.899902 6.00039 0.899902C6.0188 0.899902 6.03372 0.914829 6.03372 0.933236V5.46657V5.96657H6.53372H11.0671C11.0854 5.96657 11.1004 5.98152 11.1004 5.9999C11.1004 6.01828 11.0854 6.03324 11.0671 6.03324H6.53372H6.03372V6.53324V11.0666C6.03372 11.085 6.01877 11.0999 6.00039 11.0999C5.98201 11.0999 5.96706 11.085 5.96706 11.0666V6.53324V6.03324H5.46706H0.933724C0.915317 6.03324 0.900391 6.01831 0.900391 5.9999C0.900391 5.9815 0.915317 5.96657 0.933724 5.96657H5.46706Z"
    fill="currentColor"
    stroke="currentColor"
  />
</svg>
