<svg
  width="100%"
  height="100%"
  viewBox="0 0 15 14"
  fill="none"
  xmlns="http://www.w3.org/2000/svg"
>
<path
    d="M4.50195 13H12.502C12.8556 13 13.1947 12.8595 13.4448 12.6095C13.6948 12.3594 13.8353 12.0203 13.8353 11.6667V10.3333H5.83529V11.6667C5.83529 12.0203 5.69481 12.3594 5.44476 12.6095C5.19471 12.8595 4.85557 13 4.50195 13ZM4.50195 13C4.14833 13 3.80919 12.8595 3.55914 12.6095C3.3091 12.3594 3.16862 12.0203 3.16862 11.6667V2.33333C3.16862 1.97971 3.02814 1.64057 2.7781 1.39052C2.52805 1.14048 2.18891 1 1.83529 1M1.83529 1C1.48166 1 1.14253 1.14048 0.892477 1.39052C0.642429 1.64057 0.501953 1.97971 0.501953 2.33333V4.33333H3.16862M1.83529 1H10.502C10.8556 1 11.1947 1.14048 11.4448 1.39052C11.6948 1.64057 11.8353 1.97971 11.8353 2.33333V10.3333"
    stroke="currentColor"
    stroke-linecap="round"
    stroke-linejoin="round"
  />
</svg>
