<svg width="17" height="16" viewBox="0 0 17 16" fill="none" xmlns="http://www.w3.org/2000/svg">
<path d="M7.43336 6.96685H7.40003V6.90018H7.43336H8.50003C8.51845 6.90018 8.53336 6.9151 8.53336 6.93352V10.6669V11.1669H9.03336H9.5667H9.60003V11.2335H9.5667H8.50003H7.43336H7.40003V11.1669H7.43336H7.9667H8.4667V10.6669V7.46685V6.96685H7.9667H7.43336ZM1.93555 7.9999C1.93555 4.37451 4.87451 1.43555 8.4999 1.43555C12.1253 1.43555 15.0642 4.37451 15.0642 7.9999C15.0642 11.6253 12.1253 14.5643 8.4999 14.5643C4.87451 14.5643 1.93555 11.6253 1.93555 7.9999ZM8.4999 1.44888C4.88187 1.44888 1.94887 4.38188 1.94887 7.9999C1.94887 11.6179 4.88187 14.551 8.4999 14.551C12.1179 14.551 15.0509 11.6179 15.0509 7.9999C15.0509 4.38188 12.1179 1.44888 8.4999 1.44888ZM8.79991 4.80018C8.79991 4.96587 8.6656 5.10018 8.49991 5.10018C8.33423 5.10018 8.19991 4.96587 8.19991 4.80018C8.19991 4.6345 8.33423 4.50018 8.49991 4.50018C8.6656 4.50018 8.79991 4.6345 8.79991 4.80018Z" fill="#030712" stroke="var(--foreground)"/>
</svg>
