<svg width="20" height="20" viewBox="0 0 20 20" fill="none" xmlns="http://www.w3.org/2000/svg">
<rect x="1.33333" y="1.33333" width="17.3334" height="17.3333" rx="8.66667" stroke="url(#paint0_linear_557_23926)" stroke-width="1.33334"/>
<path d="M17.3334 10C17.3334 14.0501 14.0501 17.3333 10 17.3333C5.94992 17.3333 2.66667 14.0501 2.66667 10C2.66667 5.94991 5.94992 2.66667 10 2.66667C14.0501 2.66667 17.3334 5.94992 17.3334 10Z" fill="url(#paint1_linear_557_23926)" stroke="url(#paint2_linear_557_23926)" stroke-width="1.33334"/>
<path opacity="0.5" fill-rule="evenodd" clip-rule="evenodd" d="M16.1833 7.5C15.2362 11.3313 11.7308 14.1753 7.5513 14.1753C6.43879 14.1753 5.37403 13.9738 4.39258 13.6058C5.57886 15.4478 7.64776 16.6677 10.0016 16.6677C13.6835 16.6677 16.6683 13.6829 16.6683 10.001C16.6683 9.11654 16.496 8.2723 16.1833 7.5Z" fill="url(#paint3_linear_557_23926)"/>
<path d="M7.62038 13.1797V12.1825L9.95028 10.0252C10.1484 9.83345 10.3146 9.66087 10.4489 9.50746C10.5852 9.35405 10.6886 9.20384 10.7589 9.05682C10.8292 8.90767 10.8643 8.7468 10.8643 8.57422C10.8643 8.38246 10.8207 8.21733 10.7333 8.07884C10.646 7.93821 10.5266 7.83061 10.3754 7.75604C10.2241 7.67933 10.0526 7.64098 9.8608 7.64098C9.66051 7.64098 9.4858 7.68146 9.33665 7.76243C9.1875 7.84339 9.07244 7.95952 8.99148 8.1108C8.91051 8.26207 8.87003 8.44212 8.87003 8.65092H7.55646C7.55646 8.22266 7.65341 7.85085 7.8473 7.53551C8.04119 7.22017 8.31286 6.97621 8.66229 6.80362C9.01172 6.63104 9.41442 6.54474 9.87038 6.54474C10.3391 6.54474 10.7472 6.62784 11.0945 6.79403C11.4439 6.9581 11.7156 7.18608 11.9094 7.47798C12.1033 7.76989 12.2003 8.1044 12.2003 8.48153C12.2003 8.72869 12.1513 8.97266 12.0533 9.21342C11.9574 9.45419 11.7859 9.72159 11.5387 10.0156C11.2915 10.3075 10.9432 10.658 10.4936 11.0671L9.538 12.0036V12.0483H12.2866V13.1797H7.62038Z" fill="#676767"/>
<defs>
<linearGradient id="paint0_linear_557_23926" x1="10" y1="2" x2="10" y2="18" gradientUnits="userSpaceOnUse">
<stop stop-color="#FAFAFA"/>
<stop offset="1" stop-color="#D1D1D1"/>
</linearGradient>
<linearGradient id="paint1_linear_557_23926" x1="10" y1="2" x2="10" y2="18" gradientUnits="userSpaceOnUse">
<stop stop-color="#E4E4E4"/>
<stop offset="1" stop-color="#C0C0C0"/>
</linearGradient>
<linearGradient id="paint2_linear_557_23926" x1="10" y1="2" x2="10" y2="18" gradientUnits="userSpaceOnUse">
<stop stop-color="#B4B4B4"/>
<stop offset="1" stop-color="#E2E2E2"/>
</linearGradient>
<linearGradient id="paint3_linear_557_23926" x1="10.6672" y1="13.0002" x2="14.7278" y2="18.3639" gradientUnits="userSpaceOnUse">
<stop stop-color="#BBBBBB"/>
<stop offset="1" stop-color="#A0A0A0"/>
</linearGradient>
</defs>
</svg>
