<svg width="20" height="20" viewBox="0 0 20 20" fill="none" xmlns="http://www.w3.org/2000/svg">
<rect x="1.33333" y="1.33333" width="17.3334" height="17.3333" rx="8.66667" stroke="url(#paint0_linear_557_23941)" stroke-width="1.33334"/>
<path d="M17.3334 10C17.3334 14.0501 14.0501 17.3333 10 17.3333C5.94992 17.3333 2.66667 14.0501 2.66667 10C2.66667 5.94991 5.94992 2.66667 10 2.66667C14.0501 2.66667 17.3334 5.94992 17.3334 10Z" fill="url(#paint1_linear_557_23941)" stroke="url(#paint2_linear_557_23941)" stroke-width="1.33334"/>
<path opacity="0.5" fill-rule="evenodd" clip-rule="evenodd" d="M16.1831 7.49805C15.2361 11.3294 11.7306 14.1736 7.55106 14.1736C6.43864 14.1736 5.37397 13.9721 4.39258 13.6042C5.57889 15.446 7.6477 16.6658 10.0014 16.6658C13.6833 16.6658 16.6681 13.681 16.6681 9.99909C16.6681 9.11461 16.4959 8.27036 16.1831 7.49805Z" fill="url(#paint3_linear_557_23941)"/>
<path d="M10.0398 13.2711C9.5625 13.2711 9.13743 13.1891 8.76456 13.025C8.39382 12.8588 8.10085 12.6309 7.88565 12.3411C7.67259 12.0492 7.56286 11.7125 7.55646 11.3311H8.94993C8.95845 11.4909 9.01065 11.6316 9.10653 11.753C9.20455 11.8723 9.33452 11.965 9.49645 12.0311C9.65838 12.0971 9.84055 12.1301 10.043 12.1301C10.2539 12.1301 10.4403 12.0929 10.6023 12.0183C10.7642 11.9437 10.891 11.8404 10.9826 11.7083C11.0742 11.5762 11.12 11.4238 11.12 11.2512C11.12 11.0765 11.071 10.9221 10.973 10.7878C10.8771 10.6515 10.7386 10.5449 10.5575 10.4682C10.3786 10.3915 10.1655 10.3532 9.91832 10.3532H9.30788V9.33683H9.91832C10.1271 9.33683 10.3114 9.3006 10.4712 9.22816C10.6332 9.15572 10.7589 9.05558 10.8484 8.92773C10.9379 8.79776 10.9826 8.64648 10.9826 8.4739C10.9826 8.30984 10.9432 8.16602 10.8643 8.04244C10.7876 7.91673 10.679 7.81871 10.5384 7.7484C10.3999 7.67809 10.2379 7.64293 10.0526 7.64293C9.86506 7.64293 9.69354 7.67702 9.538 7.74521C9.38246 7.81126 9.25781 7.90607 9.16406 8.02965C9.07031 8.15323 9.02024 8.29812 9.01385 8.46431H7.6875C7.69389 8.08718 7.80149 7.75479 8.0103 7.46715C8.21911 7.17951 8.50036 6.95472 8.85405 6.79279C9.20987 6.62873 9.61151 6.5467 10.0589 6.5467C10.5107 6.5467 10.9059 6.62873 11.2447 6.79279C11.5835 6.95685 11.8466 7.17844 12.0341 7.45756C12.2237 7.73455 12.3175 8.04563 12.3153 8.3908C12.3175 8.75728 12.2035 9.06303 11.9734 9.30806C11.7454 9.55309 11.4482 9.70863 11.0817 9.77468V9.82582C11.5632 9.88761 11.9297 10.0549 12.1811 10.3276C12.4347 10.5982 12.5604 10.937 12.5582 11.3439C12.5604 11.7168 12.4528 12.0481 12.2354 12.3379C12.0202 12.6277 11.723 12.8556 11.3438 13.0218C10.9645 13.188 10.5298 13.2711 10.0398 13.2711Z" fill="#662D1C"/>
<defs>
<linearGradient id="paint0_linear_557_23941" x1="10" y1="2" x2="10" y2="18" gradientUnits="userSpaceOnUse">
<stop stop-color="#FAD6B1"/>
<stop offset="1" stop-color="#EC9965"/>
</linearGradient>
<linearGradient id="paint1_linear_557_23941" x1="10" y1="2" x2="10" y2="18" gradientUnits="userSpaceOnUse">
<stop stop-color="#EDB484"/>
<stop offset="1" stop-color="#D16C42"/>
</linearGradient>
<linearGradient id="paint2_linear_557_23941" x1="10" y1="2" x2="10" y2="18" gradientUnits="userSpaceOnUse">
<stop stop-color="#C75F37"/>
<stop offset="1" stop-color="#EEB782"/>
</linearGradient>
<linearGradient id="paint3_linear_557_23941" x1="10.6671" y1="12.9983" x2="14.6673" y2="17.9984" gradientUnits="userSpaceOnUse">
<stop stop-color="#D66233"/>
<stop offset="1" stop-color="#C44C2A"/>
</linearGradient>
</defs>
</svg>
