<svg width="900" height="900" viewBox="0 0 900 900" fill="none" xmlns="http://www.w3.org/2000/svg">
<g opacity="0.34">
<mask id="mask0_582_57390" style="mask-type:alpha" maskUnits="userSpaceOnUse" x="0" y="0" width="900" height="900">
<circle cx="450" cy="450" r="450" fill="url(#paint0_radial_582_57390)"/>
</mask>
<g mask="url(#mask0_582_57390)">
<path d="M43 -18.5234L66.0192 -10.8504C66.1875 -10.7943 66.1875 -10.5561 66.0192 -10.5L43.5256 -3.00212C43.3572 -2.946 43.3572 -2.70786 43.5256 -2.65174L66.0192 4.84613C66.1875 4.90225 66.1875 5.14039 66.0192 5.19651L43 12.8696" stroke="#793CFF" stroke-width="4.43195" stroke-linecap="round"/>
<path d="M112.051 -18.9453L135.07 -11.2722C135.238 -11.2161 135.238 -10.978 135.07 -10.9219L112.576 -3.424C112.408 -3.36788 112.408 -3.12974 112.576 -3.07362L135.07 4.42426C135.238 4.48038 135.238 4.71852 135.07 4.77463L112.051 12.4477" stroke="#793CFF" stroke-width="4.43195" stroke-linecap="round"/>
<path d="M181.57 -18.5664L204.59 -10.8933C204.758 -10.8372 204.758 -10.5991 204.59 -10.543L182.096 -3.04509C181.928 -2.98897 181.928 -2.75083 182.096 -2.69471L204.59 4.80316C204.758 4.85928 204.758 5.09742 204.59 5.15354L181.57 12.8266" stroke="#793CFF" stroke-width="4.43195" stroke-linecap="round"/>
<path d="M251.887 -18.6504L274.906 -10.9773C275.074 -10.9212 275.074 -10.6831 274.906 -10.6269L252.412 -3.12907C252.244 -3.07295 252.244 -2.83482 252.412 -2.7787L274.906 4.71918C275.074 4.7753 275.074 5.01344 274.906 5.06956L251.887 12.7426" stroke="#793CFF" stroke-width="4.43195" stroke-linecap="round"/>
<path d="M320.945 -19.0742L343.965 -11.4012C344.133 -11.345 344.133 -11.1069 343.965 -11.0508L321.471 -3.5529C321.303 -3.49678 321.303 -3.25864 321.471 -3.20252L343.965 4.29535C344.133 4.35147 344.133 4.58961 343.965 4.64573L320.945 12.3188" stroke="#793CFF" stroke-width="4.43195" stroke-linecap="round"/>
<path d="M390.465 -18.6914L413.484 -11.0183C413.652 -10.9622 413.652 -10.7241 413.484 -10.668L390.99 -3.17009C390.822 -3.11397 390.822 -2.87583 390.99 -2.81971L413.484 4.67816C413.652 4.73428 413.652 4.97242 413.484 5.02854L390.465 12.7016" stroke="#793CFF" stroke-width="4.43195" stroke-linecap="round"/>
<path d="M460.785 -18.7773L483.804 -11.1043C483.973 -11.0482 483.973 -10.81 483.804 -10.7539L461.311 -3.25603C461.142 -3.19991 461.142 -2.96177 461.311 -2.90565L483.804 4.59223C483.973 4.64835 483.973 4.88648 483.804 4.9426L460.785 12.6157" stroke="#793CFF" stroke-width="4.43195" stroke-linecap="round"/>
<path d="M529.844 -19.1992L552.863 -11.5262C553.031 -11.47 553.031 -11.2319 552.863 -11.1758L530.369 -3.6779C530.201 -3.62178 530.201 -3.38364 530.369 -3.32752L552.863 4.17035C553.031 4.22647 553.031 4.46461 552.863 4.52073L529.844 12.1938" stroke="#793CFF" stroke-width="4.43195" stroke-linecap="round"/>
<path d="M599.359 -18.8242L622.379 -11.1512C622.547 -11.095 622.547 -10.8569 622.379 -10.8008L599.885 -3.3029C599.717 -3.24678 599.717 -3.00864 599.885 -2.95252L622.379 4.54535C622.547 4.60147 622.547 4.83961 622.379 4.89573L599.359 12.5688" stroke="#793CFF" stroke-width="4.43195" stroke-linecap="round"/>
<path d="M668.879 -18.4473L691.898 -10.7742C692.066 -10.7181 692.066 -10.4799 691.898 -10.4238L669.404 -2.92595C669.236 -2.86983 669.236 -2.63169 669.404 -2.57557L691.898 4.9223C692.066 4.97842 692.066 5.21656 691.898 5.27268L668.879 12.9457" stroke="#793CFF" stroke-width="4.43195" stroke-linecap="round"/>
<path d="M738.734 -19.332L761.754 -11.659C761.922 -11.6028 761.922 -11.3647 761.754 -11.3086L739.26 -3.81071C739.092 -3.75459 739.092 -3.51646 739.26 -3.46034L761.754 4.03754C761.922 4.09366 761.922 4.3318 761.754 4.38792L738.734 12.061" stroke="#793CFF" stroke-width="4.43195" stroke-linecap="round"/>
<path d="M808.25 -18.9531L831.269 -11.2801C831.438 -11.2239 831.438 -10.9858 831.269 -10.9297L808.776 -3.43181C808.607 -3.37569 808.607 -3.13755 808.776 -3.08143L831.269 4.41645C831.438 4.47256 831.438 4.7107 831.269 4.76682L808.25 12.4399" stroke="#793CFF" stroke-width="4.43195" stroke-linecap="round"/>
<path d="M877.773 -18.5762L900.793 -10.9031C900.961 -10.847 900.961 -10.6088 900.793 -10.5527L878.299 -3.05485C878.131 -2.99874 878.131 -2.7606 878.299 -2.70448L900.793 4.7934C900.961 4.84952 900.961 5.08766 900.793 5.14378L877.773 12.8168" stroke="#793CFF" stroke-width="4.43195" stroke-linecap="round"/>
<path d="M42.6172 50.9941L65.6364 58.6672C65.8047 58.7233 65.8047 58.9615 65.6364 59.0176L43.1428 66.5155C42.9744 66.5716 42.9744 66.8097 43.1428 66.8658L65.6364 74.3637C65.8047 74.4198 65.8047 74.658 65.6364 74.7141L42.6172 82.3872" stroke="#793CFF" stroke-width="4.43195" stroke-linecap="round"/>
<path d="M111.68 50.5723L134.699 58.2453C134.867 58.3014 134.867 58.5396 134.699 58.5957L112.205 66.0936C112.037 66.1497 112.037 66.3878 112.205 66.444L134.699 73.9418C134.867 73.998 134.867 74.2361 134.699 74.2922L111.68 81.9653" stroke="#793CFF" stroke-width="4.43195" stroke-linecap="round"/>
<path d="M181.996 50.4883L205.015 58.1613C205.184 58.2175 205.184 58.4556 205.015 58.5117L182.522 66.0096C182.353 66.0657 182.353 66.3039 182.522 66.36L205.015 73.8579C205.184 73.914 205.184 74.1521 205.015 74.2082L181.996 81.8813" stroke="#793CFF" stroke-width="4.43195" stroke-linecap="round"/>
<path d="M251.516 50.8691L274.535 58.5422C274.703 58.5983 274.703 58.8365 274.535 58.8926L252.041 66.3905C251.873 66.4466 251.873 66.6847 252.041 66.7408L274.535 74.2387C274.703 74.2948 274.703 74.533 274.535 74.5891L251.516 82.2622" stroke="#793CFF" stroke-width="4.43195" stroke-linecap="round"/>
<path d="M321.031 51.2441L344.05 58.9172C344.219 58.9733 344.219 59.2115 344.05 59.2676L321.557 66.7655C321.388 66.8216 321.388 67.0597 321.557 67.1158L344.05 74.6137C344.219 74.6698 344.219 74.908 344.05 74.9641L321.031 82.6372" stroke="#793CFF" stroke-width="4.43195" stroke-linecap="round"/>
<path d="M390.891 50.3613L413.91 58.0344C414.078 58.0905 414.078 58.3287 413.91 58.3848L391.416 65.8826C391.248 65.9388 391.248 66.1769 391.416 66.233L413.91 73.7309C414.078 73.787 414.078 74.0252 413.91 74.0813L390.891 81.7543" stroke="#793CFF" stroke-width="4.43195" stroke-linecap="round"/>
<path d="M460.41 50.7402L483.429 58.4133C483.598 58.4694 483.598 58.7076 483.429 58.7637L460.936 66.2616C460.767 66.3177 460.767 66.5558 460.936 66.6119L483.429 74.1098C483.598 74.1659 483.598 74.4041 483.429 74.4602L460.41 82.1332" stroke="#793CFF" stroke-width="4.43195" stroke-linecap="round"/>
<path d="M529.93 51.1172L552.949 58.7903C553.117 58.8464 553.117 59.0845 552.949 59.1406L530.455 66.6385C530.287 66.6946 530.287 66.9328 530.455 66.9889L552.949 74.4868C553.117 74.5429 553.117 74.781 552.949 74.8371L529.93 82.5102" stroke="#793CFF" stroke-width="4.43195" stroke-linecap="round"/>
<path d="M598.984 50.6973L622.004 58.3703C622.172 58.4264 622.172 58.6646 622.004 58.7207L599.51 66.2186C599.342 66.2747 599.342 66.5128 599.51 66.569L622.004 74.0668C622.172 74.123 622.172 74.3611 622.004 74.4172L598.984 82.0903" stroke="#793CFF" stroke-width="4.43195" stroke-linecap="round"/>
<path d="M669.301 50.6074L692.32 58.2805C692.488 58.3366 692.488 58.5747 692.32 58.6309L669.826 66.1287C669.658 66.1849 669.658 66.423 669.826 66.4791L692.32 73.977C692.488 74.0331 692.488 74.2712 692.32 74.3274L669.301 82.0004" stroke="#793CFF" stroke-width="4.43195" stroke-linecap="round"/>
<path d="M738.812 50.9883L761.832 58.6613C762 58.7175 762 58.9556 761.832 59.0117L739.338 66.5096C739.17 66.5657 739.17 66.8039 739.338 66.86L761.832 74.3579C762 74.414 762 74.6521 761.832 74.7082L738.812 82.3813" stroke="#793CFF" stroke-width="4.43195" stroke-linecap="round"/>
<path d="M807.875 50.5664L830.894 58.2395C831.063 58.2956 831.063 58.5337 830.894 58.5898L808.401 66.0877C808.232 66.1438 808.232 66.382 808.401 66.4381L830.894 73.936C831.063 73.9921 831.063 74.2302 830.894 74.2864L807.875 81.9594" stroke="#793CFF" stroke-width="4.43195" stroke-linecap="round"/>
<path d="M878.203 50.4805L901.222 58.1535C901.391 58.2097 901.391 58.4478 901.222 58.5039L878.729 66.0018C878.56 66.0579 878.56 66.296 878.729 66.3522L901.222 73.85C901.391 73.9062 901.391 74.1443 901.222 74.2004L878.203 81.8735" stroke="#793CFF" stroke-width="4.43195" stroke-linecap="round"/>
<path d="M43.043 120.049L66.0622 127.722C66.2305 127.778 66.2305 128.016 66.0622 128.072L43.5685 135.57C43.4002 135.626 43.4002 135.864 43.5685 135.921L66.0622 143.418C66.2305 143.475 66.2305 143.713 66.0622 143.769L43.043 151.442" stroke="#793CFF" stroke-width="4.43195" stroke-linecap="round"/>
<path d="M112.566 120.428L135.586 128.101C135.754 128.157 135.754 128.395 135.586 128.451L113.092 135.949C112.924 136.005 112.924 136.243 113.092 136.299L135.586 143.797C135.754 143.853 135.754 144.092 135.586 144.148L112.566 151.821" stroke="#793CFF" stroke-width="4.43195" stroke-linecap="round"/>
<path d="M181.617 120.006L204.636 127.679C204.805 127.735 204.805 127.973 204.636 128.029L182.143 135.527C181.974 135.583 181.974 135.821 182.143 135.878L204.636 143.375C204.805 143.432 204.805 143.67 204.636 143.726L181.617 151.399" stroke="#793CFF" stroke-width="4.43195" stroke-linecap="round"/>
<path d="M251.137 120.385L274.156 128.058C274.324 128.114 274.324 128.352 274.156 128.408L251.662 135.906C251.494 135.962 251.494 136.2 251.662 136.256L274.156 143.754C274.324 143.81 274.324 144.049 274.156 144.105L251.137 151.778" stroke="#793CFF" stroke-width="4.43195" stroke-linecap="round"/>
<path d="M321.449 120.303L344.468 127.976C344.637 128.032 344.637 128.27 344.468 128.326L321.975 135.824C321.806 135.88 321.806 136.118 321.975 136.174L344.468 143.672C344.637 143.728 344.637 143.967 344.468 144.023L321.449 151.696" stroke="#793CFF" stroke-width="4.43195" stroke-linecap="round"/>
<path d="M390.508 119.881L413.527 127.554C413.695 127.61 413.695 127.848 413.527 127.904L391.033 135.402C390.865 135.458 390.865 135.696 391.033 135.753L413.527 143.25C413.695 143.307 413.695 143.545 413.527 143.601L390.508 151.274" stroke="#793CFF" stroke-width="4.43195" stroke-linecap="round"/>
<path d="M460.027 120.256L483.047 127.929C483.215 127.985 483.215 128.223 483.047 128.279L460.553 135.777C460.385 135.833 460.385 136.071 460.553 136.128L483.047 143.625C483.215 143.682 483.215 143.92 483.047 143.976L460.027 151.649" stroke="#793CFF" stroke-width="4.43195" stroke-linecap="round"/>
<path d="M529.543 120.635L552.562 128.308C552.731 128.364 552.731 128.602 552.562 128.658L530.069 136.156C529.9 136.212 529.9 136.45 530.069 136.506L552.562 144.004C552.731 144.06 552.731 144.299 552.562 144.355L529.543 152.028" stroke="#793CFF" stroke-width="4.43195" stroke-linecap="round"/>
<path d="M599.863 120.555L622.882 128.228C623.051 128.284 623.051 128.522 622.882 128.578L600.389 136.076C600.22 136.132 600.22 136.37 600.389 136.426L622.882 143.924C623.051 143.98 623.051 144.219 622.882 144.275L599.863 151.948" stroke="#793CFF" stroke-width="4.43195" stroke-linecap="round"/>
<path d="M668.922 120.129L691.941 127.802C692.109 127.858 692.109 128.096 691.941 128.152L669.447 135.65C669.279 135.706 669.279 135.944 669.447 136.001L691.941 143.498C692.109 143.555 692.109 143.793 691.941 143.849L668.922 151.522" stroke="#793CFF" stroke-width="4.43195" stroke-linecap="round"/>
<path d="M738.441 120.508L761.461 128.181C761.629 128.237 761.629 128.475 761.461 128.531L738.967 136.029C738.799 136.085 738.799 136.323 738.967 136.38L761.461 143.877C761.629 143.934 761.629 144.172 761.461 144.228L738.441 151.901" stroke="#793CFF" stroke-width="4.43195" stroke-linecap="round"/>
<path d="M808.758 120.422L831.777 128.095C831.945 128.151 831.945 128.389 831.777 128.445L809.283 135.943C809.115 135.999 809.115 136.237 809.283 136.294L831.777 143.791C831.945 143.848 831.945 144.086 831.777 144.142L808.758 151.815" stroke="#793CFF" stroke-width="4.43195" stroke-linecap="round"/>
<path d="M877.816 120L900.836 127.673C901.004 127.729 901.004 127.967 900.836 128.023L878.342 135.521C878.174 135.577 878.174 135.816 878.342 135.872L900.836 143.37C901.004 143.426 901.004 143.664 900.836 143.72L877.816 151.393" stroke="#793CFF" stroke-width="4.43195" stroke-linecap="round"/>
<path d="M42.6602 189.572L65.6793 197.245C65.8477 197.301 65.8477 197.54 65.6793 197.596L43.1857 205.094C43.0174 205.15 43.0174 205.388 43.1857 205.444L65.6793 212.942C65.8477 212.998 65.8477 213.236 65.6793 213.292L42.6602 220.965" stroke="#793CFF" stroke-width="4.43195" stroke-linecap="round"/>
<path d="M112.184 189.953L135.203 197.626C135.371 197.682 135.371 197.92 135.203 197.977L112.709 205.474C112.541 205.531 112.541 205.769 112.709 205.825L135.203 213.323C135.371 213.379 135.371 213.617 135.203 213.673L112.184 221.346" stroke="#793CFF" stroke-width="4.43195" stroke-linecap="round"/>
<path d="M181.703 190.324L204.722 197.997C204.891 198.053 204.891 198.292 204.722 198.348L182.229 205.846C182.06 205.902 182.06 206.14 182.229 206.196L204.722 213.694C204.891 213.75 204.891 213.988 204.722 214.044L181.703 221.717" stroke="#793CFF" stroke-width="4.43195" stroke-linecap="round"/>
<path d="M251.555 189.439L274.574 197.113C274.742 197.169 274.742 197.407 274.574 197.463L252.08 204.961C251.912 205.017 251.912 205.255 252.08 205.311L274.574 212.809C274.742 212.865 274.742 213.103 274.574 213.159L251.555 220.832" stroke="#793CFF" stroke-width="4.43195" stroke-linecap="round"/>
<path d="M321.078 189.818L344.097 197.491C344.266 197.548 344.266 197.786 344.097 197.842L321.604 205.34C321.435 205.396 321.435 205.634 321.604 205.69L344.097 213.188C344.266 213.244 344.266 213.482 344.097 213.538L321.078 221.211" stroke="#793CFF" stroke-width="4.43195" stroke-linecap="round"/>
<path d="M390.594 190.197L413.613 197.87C413.781 197.926 413.781 198.165 413.613 198.221L391.119 205.719C390.951 205.775 390.951 206.013 391.119 206.069L413.613 213.567C413.781 213.623 413.781 213.861 413.613 213.917L390.594 221.59" stroke="#793CFF" stroke-width="4.43195" stroke-linecap="round"/>
<path d="M459.652 189.773L482.672 197.447C482.84 197.503 482.84 197.741 482.672 197.797L460.178 205.295C460.01 205.351 460.01 205.589 460.178 205.645L482.672 213.143C482.84 213.199 482.84 213.437 482.672 213.493L459.652 221.166" stroke="#793CFF" stroke-width="4.43195" stroke-linecap="round"/>
<path d="M529.969 189.693L552.988 197.366C553.156 197.423 553.156 197.661 552.988 197.717L530.494 205.215C530.326 205.271 530.326 205.509 530.494 205.565L552.988 213.063C553.156 213.119 553.156 213.357 552.988 213.413L529.969 221.086" stroke="#793CFF" stroke-width="4.43195" stroke-linecap="round"/>
<path d="M599.492 190.068L622.511 197.741C622.68 197.798 622.68 198.036 622.511 198.092L600.018 205.59C599.849 205.646 599.849 205.884 600.018 205.94L622.511 213.438C622.68 213.494 622.68 213.732 622.511 213.788L599.492 221.461" stroke="#793CFF" stroke-width="4.43195" stroke-linecap="round"/>
<path d="M669.008 190.449L692.027 198.122C692.195 198.178 692.195 198.417 692.027 198.473L669.533 205.971C669.365 206.027 669.365 206.265 669.533 206.321L692.027 213.819C692.195 213.875 692.195 214.113 692.027 214.169L669.008 221.842" stroke="#793CFF" stroke-width="4.43195" stroke-linecap="round"/>
<path d="M738.863 189.562L761.882 197.236C762.051 197.292 762.051 197.53 761.882 197.586L739.389 205.084C739.22 205.14 739.22 205.378 739.389 205.434L761.882 212.932C762.051 212.988 762.051 213.226 761.882 213.282L738.863 220.956" stroke="#793CFF" stroke-width="4.43195" stroke-linecap="round"/>
<path d="M808.383 189.945L831.402 197.618C831.57 197.674 831.57 197.913 831.402 197.969L808.908 205.467C808.74 205.523 808.74 205.761 808.908 205.817L831.402 213.315C831.57 213.371 831.57 213.609 831.402 213.665L808.383 221.338" stroke="#793CFF" stroke-width="4.43195" stroke-linecap="round"/>
<path d="M877.906 190.316L900.925 197.989C901.094 198.046 901.094 198.284 900.925 198.34L878.432 205.838C878.263 205.894 878.263 206.132 878.432 206.188L900.925 213.686C901.094 213.742 901.094 213.98 900.925 214.036L877.906 221.709" stroke="#793CFF" stroke-width="4.43195" stroke-linecap="round"/>
<path d="M42.7539 259.893L65.7731 267.566C65.9415 267.622 65.9415 267.86 65.7731 267.916L43.2795 275.414C43.1111 275.47 43.1111 275.708 43.2795 275.764L65.7731 283.262C65.9415 283.318 65.9415 283.556 65.7731 283.613L42.7539 291.286" stroke="#793CFF" stroke-width="4.43195" stroke-linecap="round"/>
<path d="M111.805 259.471L134.824 267.144C134.992 267.2 134.992 267.438 134.824 267.494L112.33 274.992C112.162 275.048 112.162 275.286 112.33 275.342L134.824 282.84C134.992 282.896 134.992 283.135 134.824 283.191L111.805 290.864" stroke="#793CFF" stroke-width="4.43195" stroke-linecap="round"/>
<path d="M182.125 259.387L205.144 267.06C205.313 267.116 205.313 267.354 205.144 267.41L182.651 274.908C182.482 274.964 182.482 275.202 182.651 275.258L205.144 282.756C205.313 282.812 205.313 283.051 205.144 283.107L182.125 290.78" stroke="#793CFF" stroke-width="4.43195" stroke-linecap="round"/>
<path d="M251.641 259.758L274.66 267.431C274.828 267.487 274.828 267.725 274.66 267.781L252.166 275.279C251.998 275.335 251.998 275.573 252.166 275.63L274.66 283.127C274.828 283.184 274.828 283.422 274.66 283.478L251.641 291.151" stroke="#793CFF" stroke-width="4.43195" stroke-linecap="round"/>
<path d="M320.703 259.336L343.722 267.009C343.891 267.065 343.891 267.303 343.722 267.359L321.229 274.857C321.06 274.913 321.06 275.152 321.229 275.208L343.722 282.706C343.891 282.762 343.891 283 343.722 283.056L320.703 290.729" stroke="#793CFF" stroke-width="4.43195" stroke-linecap="round"/>
<path d="M391.02 259.254L414.039 266.927C414.207 266.983 414.207 267.221 414.039 267.277L391.545 274.775C391.377 274.831 391.377 275.069 391.545 275.126L414.039 282.623C414.207 282.68 414.207 282.918 414.039 282.974L391.02 290.647" stroke="#793CFF" stroke-width="4.43195" stroke-linecap="round"/>
<path d="M460.539 259.633L483.558 267.306C483.727 267.362 483.727 267.6 483.558 267.656L461.065 275.154C460.896 275.21 460.896 275.448 461.065 275.505L483.558 283.002C483.727 283.059 483.727 283.297 483.558 283.353L460.539 291.026" stroke="#793CFF" stroke-width="4.43195" stroke-linecap="round"/>
<path d="M529.594 259.211L552.613 266.884C552.781 266.94 552.781 267.178 552.613 267.234L530.119 274.732C529.951 274.788 529.951 275.027 530.119 275.083L552.613 282.581C552.781 282.637 552.781 282.875 552.613 282.931L529.594 290.604" stroke="#793CFF" stroke-width="4.43195" stroke-linecap="round"/>
<path d="M599.113 259.59L622.132 267.263C622.301 267.319 622.301 267.557 622.132 267.613L599.639 275.111C599.47 275.167 599.47 275.405 599.639 275.462L622.132 282.959C622.301 283.016 622.301 283.254 622.132 283.31L599.113 290.983" stroke="#793CFF" stroke-width="4.43195" stroke-linecap="round"/>
<path d="M669.43 259.506L692.449 267.179C692.617 267.235 692.617 267.473 692.449 267.529L669.955 275.027C669.787 275.083 669.787 275.321 669.955 275.378L692.449 282.875C692.617 282.932 692.617 283.17 692.449 283.226L669.43 290.899" stroke="#793CFF" stroke-width="4.43195" stroke-linecap="round"/>
<path d="M738.484 259.084L761.504 266.757C761.672 266.813 761.672 267.051 761.504 267.107L739.01 274.605C738.842 274.661 738.842 274.9 739.01 274.956L761.504 282.454C761.672 282.51 761.672 282.748 761.504 282.804L738.484 290.477" stroke="#793CFF" stroke-width="4.43195" stroke-linecap="round"/>
<path d="M808.004 259.461L831.023 267.134C831.191 267.19 831.191 267.428 831.023 267.484L808.529 274.982C808.361 275.038 808.361 275.277 808.529 275.333L831.023 282.831C831.191 282.887 831.191 283.125 831.023 283.181L808.004 290.854" stroke="#793CFF" stroke-width="4.43195" stroke-linecap="round"/>
<path d="M877.52 259.84L900.539 267.513C900.707 267.569 900.707 267.807 900.539 267.863L878.045 275.361C877.877 275.417 877.877 275.655 878.045 275.712L900.539 283.209C900.707 283.266 900.707 283.504 900.539 283.56L877.52 291.233" stroke="#793CFF" stroke-width="4.43195" stroke-linecap="round"/>
<path d="M42.3672 329.412L65.3864 337.085C65.5547 337.141 65.5547 337.379 65.3864 337.436L42.8928 344.933C42.7244 344.99 42.7244 345.228 42.8928 345.284L65.3864 352.782C65.5547 352.838 65.5547 353.076 65.3864 353.132L42.3672 360.805" stroke="#793CFF" stroke-width="4.43195" stroke-linecap="round"/>
<path d="M112.684 329.326L135.703 336.999C135.871 337.055 135.871 337.293 135.703 337.35L113.209 344.847C113.041 344.904 113.041 345.142 113.209 345.198L135.703 352.696C135.871 352.752 135.871 352.99 135.703 353.046L112.684 360.719" stroke="#793CFF" stroke-width="4.43195" stroke-linecap="round"/>
<path d="M181.75 328.904L204.769 336.577C204.938 336.633 204.938 336.872 204.769 336.928L182.276 344.426C182.107 344.482 182.107 344.72 182.276 344.776L204.769 352.274C204.938 352.33 204.938 352.568 204.769 352.624L181.75 360.297" stroke="#793CFF" stroke-width="4.43195" stroke-linecap="round"/>
<path d="M251.27 329.283L274.289 336.956C274.457 337.012 274.457 337.251 274.289 337.307L251.795 344.805C251.627 344.861 251.627 345.099 251.795 345.155L274.289 352.653C274.457 352.709 274.457 352.947 274.289 353.003L251.27 360.676" stroke="#793CFF" stroke-width="4.43195" stroke-linecap="round"/>
<path d="M321.59 329.191L344.609 336.864C344.777 336.921 344.777 337.159 344.609 337.215L322.115 344.713C321.947 344.769 321.947 345.007 322.115 345.063L344.609 352.561C344.777 352.617 344.777 352.855 344.609 352.911L321.59 360.584" stroke="#793CFF" stroke-width="4.43195" stroke-linecap="round"/>
<path d="M390.641 328.77L413.66 336.443C413.828 336.499 413.828 336.737 413.66 336.793L391.166 344.291C390.998 344.347 390.998 344.585 391.166 344.641L413.66 352.139C413.828 352.195 413.828 352.433 413.66 352.489L390.641 360.163" stroke="#793CFF" stroke-width="4.43195" stroke-linecap="round"/>
<path d="M460.152 329.148L483.172 336.822C483.34 336.878 483.34 337.116 483.172 337.172L460.678 344.67C460.51 344.726 460.51 344.964 460.678 345.02L483.172 352.518C483.34 352.574 483.34 352.812 483.172 352.868L460.152 360.541" stroke="#793CFF" stroke-width="4.43195" stroke-linecap="round"/>
<path d="M529.68 329.527L552.699 337.2C552.867 337.257 552.867 337.495 552.699 337.551L530.205 345.049C530.037 345.105 530.037 345.343 530.205 345.399L552.699 352.897C552.867 352.953 552.867 353.191 552.699 353.247L529.68 360.92" stroke="#793CFF" stroke-width="4.43195" stroke-linecap="round"/>
<path d="M599.535 328.645L622.554 336.318C622.723 336.374 622.723 336.612 622.554 336.668L600.061 344.166C599.892 344.222 599.892 344.46 600.061 344.516L622.554 352.014C622.723 352.07 622.723 352.308 622.554 352.364L599.535 360.038" stroke="#793CFF" stroke-width="4.43195" stroke-linecap="round"/>
<path d="M669.051 329.023L692.07 336.697C692.238 336.753 692.238 336.991 692.07 337.047L669.576 344.545C669.408 344.601 669.408 344.839 669.576 344.895L692.07 352.393C692.238 352.449 692.238 352.687 692.07 352.743L669.051 360.416" stroke="#793CFF" stroke-width="4.43195" stroke-linecap="round"/>
<path d="M738.57 329.4L761.59 337.073C761.758 337.13 761.758 337.368 761.59 337.424L739.096 344.922C738.928 344.978 738.928 345.216 739.096 345.272L761.59 352.77C761.758 352.826 761.758 353.064 761.59 353.12L738.57 360.793" stroke="#793CFF" stroke-width="4.43195" stroke-linecap="round"/>
<path d="M807.629 328.979L830.648 336.652C830.816 336.708 830.816 336.946 830.648 337.002L808.154 344.5C807.986 344.556 807.986 344.794 808.154 344.85L830.648 352.348C830.816 352.404 830.816 352.642 830.648 352.698L807.629 360.372" stroke="#793CFF" stroke-width="4.43195" stroke-linecap="round"/>
<path d="M877.945 328.895L900.965 336.568C901.133 336.624 901.133 336.862 900.965 336.918L878.471 344.416C878.303 344.472 878.303 344.71 878.471 344.766L900.965 352.264C901.133 352.32 901.133 352.558 900.965 352.614L877.945 360.288" stroke="#793CFF" stroke-width="4.43195" stroke-linecap="round"/>
<path d="M42.793 398.465L65.8122 406.138C65.9805 406.194 65.9805 406.432 65.8122 406.488L43.3185 413.986C43.1502 414.042 43.1502 414.28 43.3185 414.337L65.8122 421.834C65.9805 421.891 65.9805 422.129 65.8122 422.185L42.793 429.858" stroke="#793CFF" stroke-width="4.43195" stroke-linecap="round"/>
<path d="M112.305 398.846L135.324 406.519C135.492 406.575 135.492 406.813 135.324 406.869L112.83 414.367C112.662 414.423 112.662 414.661 112.83 414.717L135.324 422.215C135.492 422.271 135.492 422.51 135.324 422.566L112.305 430.239" stroke="#793CFF" stroke-width="4.43195" stroke-linecap="round"/>
<path d="M181.824 399.223L204.843 406.896C205.012 406.952 205.012 407.19 204.843 407.246L182.35 414.744C182.181 414.8 182.181 415.038 182.35 415.094L204.843 422.592C205.012 422.648 205.012 422.886 204.843 422.943L181.824 430.616" stroke="#793CFF" stroke-width="4.43195" stroke-linecap="round"/>
<path d="M251.688 398.34L274.707 406.013C274.875 406.069 274.875 406.307 274.707 406.363L252.213 413.861C252.045 413.917 252.045 414.155 252.213 414.212L274.707 421.709C274.875 421.766 274.875 422.004 274.707 422.06L251.688 429.733" stroke="#793CFF" stroke-width="4.43195" stroke-linecap="round"/>
<path d="M321.195 398.719L344.215 406.392C344.383 406.448 344.383 406.686 344.215 406.742L321.721 414.24C321.553 414.296 321.553 414.534 321.721 414.59L344.215 422.088C344.383 422.144 344.383 422.383 344.215 422.439L321.195 430.112" stroke="#793CFF" stroke-width="4.43195" stroke-linecap="round"/>
<path d="M390.723 399.086L413.742 406.759C413.91 406.815 413.91 407.053 413.742 407.109L391.248 414.607C391.08 414.663 391.08 414.902 391.248 414.958L413.742 422.456C413.91 422.512 413.91 422.75 413.742 422.806L390.723 430.479" stroke="#793CFF" stroke-width="4.43195" stroke-linecap="round"/>
<path d="M459.781 398.668L482.8 406.341C482.969 406.397 482.969 406.635 482.8 406.691L460.307 414.189C460.138 414.245 460.138 414.484 460.307 414.54L482.8 422.038C482.969 422.094 482.969 422.332 482.8 422.388L459.781 430.061" stroke="#793CFF" stroke-width="4.43195" stroke-linecap="round"/>
<path d="M530.098 398.584L553.117 406.257C553.285 406.313 553.285 406.551 553.117 406.607L530.623 414.105C530.455 414.161 530.455 414.4 530.623 414.456L553.117 421.954C553.285 422.01 553.285 422.248 553.117 422.304L530.098 429.977" stroke="#793CFF" stroke-width="4.43195" stroke-linecap="round"/>
<path d="M599.617 398.965L622.636 406.638C622.805 406.694 622.805 406.932 622.636 406.988L600.143 414.486C599.974 414.542 599.974 414.78 600.143 414.837L622.636 422.334C622.805 422.391 622.805 422.629 622.636 422.685L599.617 430.358" stroke="#793CFF" stroke-width="4.43195" stroke-linecap="round"/>
<path d="M668.672 398.541L691.691 406.214C691.859 406.27 691.859 406.508 691.691 406.564L669.197 414.062C669.029 414.118 669.029 414.357 669.197 414.413L691.691 421.911C691.859 421.967 691.859 422.205 691.691 422.261L668.672 429.934" stroke="#793CFF" stroke-width="4.43195" stroke-linecap="round"/>
<path d="M739.004 398.457L762.023 406.13C762.191 406.186 762.191 406.424 762.023 406.48L739.529 413.978C739.361 414.034 739.361 414.273 739.529 414.329L762.023 421.827C762.191 421.883 762.191 422.121 762.023 422.177L739.004 429.85" stroke="#793CFF" stroke-width="4.43195" stroke-linecap="round"/>
<path d="M808.516 398.834L831.535 406.507C831.703 406.563 831.703 406.801 831.535 406.857L809.041 414.355C808.873 414.411 808.873 414.65 809.041 414.706L831.535 422.204C831.703 422.26 831.703 422.498 831.535 422.554L808.516 430.227" stroke="#793CFF" stroke-width="4.43195" stroke-linecap="round"/>
<path d="M877.562 398.412L900.582 406.085C900.75 406.141 900.75 406.379 900.582 406.436L878.088 413.933C877.92 413.99 877.92 414.228 878.088 414.284L900.582 421.782C900.75 421.838 900.75 422.076 900.582 422.132L877.562 429.805" stroke="#793CFF" stroke-width="4.43195" stroke-linecap="round"/>
<path d="M42.4102 467.984L65.4293 475.657C65.5977 475.714 65.5977 475.952 65.4293 476.008L42.9357 483.506C42.7674 483.562 42.7674 483.8 42.9357 483.856L65.4293 491.354C65.5977 491.41 65.5977 491.648 65.4293 491.704L42.4102 499.377" stroke="#793CFF" stroke-width="4.43195" stroke-linecap="round"/>
<path d="M111.926 468.363L134.945 476.036C135.113 476.092 135.113 476.331 134.945 476.387L112.451 483.885C112.283 483.941 112.283 484.179 112.451 484.235L134.945 491.733C135.113 491.789 135.113 492.027 134.945 492.083L111.926 499.756" stroke="#793CFF" stroke-width="4.43195" stroke-linecap="round"/>
<path d="M182.25 468.279L205.269 475.952C205.438 476.008 205.438 476.247 205.269 476.303L182.776 483.801C182.607 483.857 182.607 484.095 182.776 484.151L205.269 491.649C205.438 491.705 205.438 491.943 205.269 491.999L182.25 499.672" stroke="#793CFF" stroke-width="4.43195" stroke-linecap="round"/>
<path d="M251.309 467.857L274.328 475.53C274.496 475.587 274.496 475.825 274.328 475.881L251.834 483.379C251.666 483.435 251.666 483.673 251.834 483.729L274.328 491.227C274.496 491.283 274.496 491.521 274.328 491.577L251.309 499.25" stroke="#793CFF" stroke-width="4.43195" stroke-linecap="round"/>
<path d="M320.828 468.236L343.847 475.909C344.016 475.966 344.016 476.204 343.847 476.26L321.354 483.758C321.185 483.814 321.185 484.052 321.354 484.108L343.847 491.606C344.016 491.662 344.016 491.9 343.847 491.956L320.828 499.629" stroke="#793CFF" stroke-width="4.43195" stroke-linecap="round"/>
<path d="M390.344 468.613L413.363 476.286C413.531 476.342 413.531 476.581 413.363 476.637L390.869 484.135C390.701 484.191 390.701 484.429 390.869 484.485L413.363 491.983C413.531 492.039 413.531 492.277 413.363 492.333L390.344 500.006" stroke="#793CFF" stroke-width="4.43195" stroke-linecap="round"/>
<path d="M460.664 468.527L483.683 476.2C483.852 476.257 483.852 476.495 483.683 476.551L461.19 484.049C461.021 484.105 461.021 484.343 461.19 484.399L483.683 491.897C483.852 491.953 483.852 492.191 483.683 492.247L460.664 499.92" stroke="#793CFF" stroke-width="4.43195" stroke-linecap="round"/>
<path d="M529.715 468.105L552.734 475.779C552.902 475.835 552.902 476.073 552.734 476.129L530.24 483.627C530.072 483.683 530.072 483.921 530.24 483.977L552.734 491.475C552.902 491.531 552.902 491.769 552.734 491.825L529.715 499.498" stroke="#793CFF" stroke-width="4.43195" stroke-linecap="round"/>
<path d="M599.242 468.482L622.261 476.155C622.43 476.212 622.43 476.45 622.261 476.506L599.768 484.004C599.599 484.06 599.599 484.298 599.768 484.354L622.261 491.852C622.43 491.908 622.43 492.146 622.261 492.202L599.242 499.875" stroke="#793CFF" stroke-width="4.43195" stroke-linecap="round"/>
<path d="M669.559 468.398L692.578 476.072C692.746 476.128 692.746 476.366 692.578 476.422L670.084 483.92C669.916 483.976 669.916 484.214 670.084 484.27L692.578 491.768C692.746 491.824 692.746 492.062 692.578 492.118L669.559 499.791" stroke="#793CFF" stroke-width="4.43195" stroke-linecap="round"/>
<path d="M738.613 467.975L761.632 475.648C761.801 475.704 761.801 475.942 761.632 475.998L739.139 483.496C738.97 483.552 738.97 483.79 739.139 483.846L761.632 491.344C761.801 491.4 761.801 491.638 761.632 491.695L738.613 499.368" stroke="#793CFF" stroke-width="4.43195" stroke-linecap="round"/>
<path d="M808.125 468.354L831.144 476.027C831.313 476.083 831.313 476.321 831.144 476.377L808.651 483.875C808.482 483.931 808.482 484.169 808.651 484.225L831.144 491.723C831.313 491.779 831.313 492.017 831.144 492.073L808.125 499.747" stroke="#793CFF" stroke-width="4.43195" stroke-linecap="round"/>
<path d="M877.648 468.729L900.668 476.402C900.836 476.458 900.836 476.696 900.668 476.752L878.174 484.25C878.006 484.306 878.006 484.544 878.174 484.6L900.668 492.098C900.836 492.154 900.836 492.392 900.668 492.448L877.648 500.122" stroke="#793CFF" stroke-width="4.43195" stroke-linecap="round"/>
<path d="M42.5 538.301L65.5192 545.974C65.6875 546.03 65.6875 546.268 65.5192 546.324L43.0256 553.822C42.8572 553.878 42.8572 554.116 43.0256 554.172L65.5192 561.67C65.6875 561.726 65.6875 561.965 65.5192 562.021L42.5 569.694" stroke="#793CFF" stroke-width="4.43195" stroke-linecap="round"/>
<path d="M112.359 537.418L135.379 545.091C135.547 545.147 135.547 545.385 135.379 545.441L112.885 552.939C112.717 552.995 112.717 553.234 112.885 553.29L135.379 560.788C135.547 560.844 135.547 561.082 135.379 561.138L112.359 568.811" stroke="#793CFF" stroke-width="4.43195" stroke-linecap="round"/>
<path d="M181.879 537.799L204.898 545.472C205.066 545.528 205.066 545.766 204.898 545.822L182.404 553.32C182.236 553.376 182.236 553.614 182.404 553.671L204.898 561.168C205.066 561.225 205.066 561.463 204.898 561.519L181.879 569.192" stroke="#793CFF" stroke-width="4.43195" stroke-linecap="round"/>
<path d="M251.395 538.172L274.414 545.845C274.582 545.901 274.582 546.139 274.414 546.195L251.92 553.693C251.752 553.749 251.752 553.987 251.92 554.044L274.414 561.541C274.582 561.598 274.582 561.836 274.414 561.892L251.395 569.565" stroke="#793CFF" stroke-width="4.43195" stroke-linecap="round"/>
<path d="M321.25 537.291L344.269 544.964C344.438 545.02 344.438 545.258 344.269 545.314L321.776 552.812C321.607 552.868 321.607 553.107 321.776 553.163L344.269 560.661C344.438 560.717 344.438 560.955 344.269 561.011L321.25 568.684" stroke="#793CFF" stroke-width="4.43195" stroke-linecap="round"/>
<path d="M390.762 537.67L413.781 545.343C413.949 545.399 413.949 545.637 413.781 545.693L391.287 553.191C391.119 553.247 391.119 553.485 391.287 553.542L413.781 561.039C413.949 561.096 413.949 561.334 413.781 561.39L390.762 569.063" stroke="#793CFF" stroke-width="4.43195" stroke-linecap="round"/>
<path d="M460.289 538.045L483.308 545.718C483.477 545.774 483.477 546.012 483.308 546.068L460.815 553.566C460.646 553.622 460.646 553.86 460.815 553.917L483.308 561.414C483.477 561.471 483.477 561.709 483.308 561.765L460.289 569.438" stroke="#793CFF" stroke-width="4.43195" stroke-linecap="round"/>
<path d="M529.809 538.422L552.828 546.095C552.996 546.151 552.996 546.389 552.828 546.445L530.334 553.943C530.166 553.999 530.166 554.237 530.334 554.294L552.828 561.791C552.996 561.848 552.996 562.086 552.828 562.142L529.809 569.815" stroke="#793CFF" stroke-width="4.43195" stroke-linecap="round"/>
<path d="M599.66 537.545L622.679 545.218C622.848 545.274 622.848 545.512 622.679 545.568L600.186 553.066C600.017 553.122 600.017 553.36 600.186 553.417L622.679 560.914C622.848 560.971 622.848 561.209 622.679 561.265L599.66 568.938" stroke="#793CFF" stroke-width="4.43195" stroke-linecap="round"/>
<path d="M669.18 537.912L692.199 545.585C692.367 545.641 692.367 545.879 692.199 545.936L669.705 553.433C669.537 553.49 669.537 553.728 669.705 553.784L692.199 561.282C692.367 561.338 692.367 561.576 692.199 561.632L669.18 569.305" stroke="#793CFF" stroke-width="4.43195" stroke-linecap="round"/>
<path d="M738.695 538.295L761.715 545.968C761.883 546.024 761.883 546.262 761.715 546.318L739.221 553.816C739.053 553.872 739.053 554.11 739.221 554.167L761.715 561.664C761.883 561.721 761.883 561.959 761.715 562.015L738.695 569.688" stroke="#793CFF" stroke-width="4.43195" stroke-linecap="round"/>
<path d="M807.754 537.871L830.773 545.544C830.941 545.6 830.941 545.838 830.773 545.895L808.279 553.392C808.111 553.449 808.111 553.687 808.279 553.743L830.773 561.241C830.941 561.297 830.941 561.535 830.773 561.591L807.754 569.264" stroke="#793CFF" stroke-width="4.43195" stroke-linecap="round"/>
<path d="M878.07 537.787L901.09 545.46C901.258 545.516 901.258 545.754 901.09 545.811L878.596 553.308C878.428 553.365 878.428 553.603 878.596 553.659L901.09 561.157C901.258 561.213 901.258 561.451 901.09 561.507L878.07 569.18" stroke="#793CFF" stroke-width="4.43195" stroke-linecap="round"/>
<path d="M42.9219 607.359L65.9411 615.032C66.1094 615.089 66.1094 615.327 65.9411 615.383L43.4474 622.881C43.2791 622.937 43.2791 623.175 43.4474 623.231L65.9411 630.729C66.1094 630.785 66.1094 631.023 65.9411 631.079L42.9219 638.752" stroke="#793CFF" stroke-width="4.43195" stroke-linecap="round"/>
<path d="M112.441 607.736L135.461 615.409C135.629 615.466 135.629 615.704 135.461 615.76L112.967 623.258C112.799 623.314 112.799 623.552 112.967 623.608L135.461 631.106C135.629 631.162 135.629 631.4 135.461 631.456L112.441 639.129" stroke="#793CFF" stroke-width="4.43195" stroke-linecap="round"/>
<path d="M181.492 607.314L204.511 614.988C204.68 615.044 204.68 615.282 204.511 615.338L182.018 622.836C181.849 622.892 181.849 623.13 182.018 623.186L204.511 630.684C204.68 630.74 204.68 630.978 204.511 631.034L181.492 638.707" stroke="#793CFF" stroke-width="4.43195" stroke-linecap="round"/>
<path d="M251.809 607.232L274.828 614.905C274.996 614.962 274.996 615.2 274.828 615.256L252.334 622.754C252.166 622.81 252.166 623.048 252.334 623.104L274.828 630.602C274.996 630.658 274.996 630.896 274.828 630.952L251.809 638.625" stroke="#793CFF" stroke-width="4.43195" stroke-linecap="round"/>
<path d="M321.328 607.607L344.347 615.28C344.516 615.337 344.516 615.575 344.347 615.631L321.854 623.129C321.685 623.185 321.685 623.423 321.854 623.479L344.347 630.977C344.516 631.033 344.516 631.271 344.347 631.327L321.328 639" stroke="#793CFF" stroke-width="4.43195" stroke-linecap="round"/>
<path d="M390.395 607.185L413.414 614.858C413.582 614.914 413.582 615.152 413.414 615.208L390.92 622.706C390.752 622.762 390.752 623 390.92 623.056L413.414 630.554C413.582 630.61 413.582 630.848 413.414 630.905L390.395 638.578" stroke="#793CFF" stroke-width="4.43195" stroke-linecap="round"/>
<path d="M459.902 607.564L482.922 615.238C483.09 615.294 483.09 615.532 482.922 615.588L460.428 623.086C460.26 623.142 460.26 623.38 460.428 623.436L482.922 630.934C483.09 630.99 483.09 631.228 482.922 631.284L459.902 638.957" stroke="#793CFF" stroke-width="4.43195" stroke-linecap="round"/>
<path d="M530.227 607.48L553.246 615.154C553.414 615.21 553.414 615.448 553.246 615.504L530.752 623.002C530.584 623.058 530.584 623.296 530.752 623.352L553.246 630.85C553.414 630.906 553.414 631.144 553.246 631.2L530.227 638.873" stroke="#793CFF" stroke-width="4.43195" stroke-linecap="round"/>
<path d="M599.289 607.057L622.308 614.73C622.477 614.786 622.477 615.024 622.308 615.08L599.815 622.578C599.646 622.634 599.646 622.872 599.815 622.928L622.308 630.426C622.477 630.482 622.477 630.72 622.308 630.777L599.289 638.45" stroke="#793CFF" stroke-width="4.43195" stroke-linecap="round"/>
<path d="M668.805 607.435L691.824 615.108C691.992 615.164 691.992 615.402 691.824 615.458L669.33 622.956C669.162 623.012 669.162 623.25 669.33 623.306L691.824 630.804C691.992 630.86 691.992 631.098 691.824 631.155L668.805 638.828" stroke="#793CFF" stroke-width="4.43195" stroke-linecap="round"/>
<path d="M738.328 607.812L761.347 615.485C761.516 615.541 761.516 615.779 761.347 615.835L738.854 623.333C738.685 623.389 738.685 623.627 738.854 623.683L761.347 631.181C761.516 631.237 761.516 631.475 761.347 631.531L738.328 639.205" stroke="#793CFF" stroke-width="4.43195" stroke-linecap="round"/>
<path d="M808.645 607.728L831.664 615.401C831.832 615.457 831.832 615.695 831.664 615.751L809.17 623.249C809.002 623.305 809.002 623.543 809.17 623.599L831.664 631.097C831.832 631.153 831.832 631.391 831.664 631.447L808.645 639.121" stroke="#793CFF" stroke-width="4.43195" stroke-linecap="round"/>
<path d="M877.703 607.305L900.722 614.978C900.891 615.034 900.891 615.272 900.722 615.328L878.229 622.826C878.06 622.882 878.06 623.12 878.229 623.176L900.722 630.674C900.891 630.73 900.891 630.969 900.722 631.025L877.703 638.698" stroke="#793CFF" stroke-width="4.43195" stroke-linecap="round"/>
<path d="M42.5391 676.878L65.5583 684.551C65.7266 684.607 65.7266 684.845 65.5583 684.901L43.0646 692.399C42.8963 692.455 42.8963 692.694 43.0646 692.75L65.5583 700.248C65.7266 700.304 65.7266 700.542 65.5583 700.598L42.5391 708.271" stroke="#793CFF" stroke-width="4.43195" stroke-linecap="round"/>
<path d="M112.062 677.255L135.082 684.928C135.25 684.984 135.25 685.222 135.082 685.278L112.588 692.776C112.42 692.832 112.42 693.07 112.588 693.127L135.082 700.624C135.25 700.681 135.25 700.919 135.082 700.975L112.062 708.648" stroke="#793CFF" stroke-width="4.43195" stroke-linecap="round"/>
<path d="M182.383 677.169L205.402 684.842C205.57 684.898 205.57 685.136 205.402 685.192L182.908 692.69C182.74 692.746 182.74 692.985 182.908 693.041L205.402 700.539C205.57 700.595 205.57 700.833 205.402 700.889L182.383 708.562" stroke="#793CFF" stroke-width="4.43195" stroke-linecap="round"/>
<path d="M251.438 676.754L274.457 684.427C274.625 684.483 274.625 684.721 274.457 684.777L251.963 692.275C251.795 692.331 251.795 692.569 251.963 692.626L274.457 700.123C274.625 700.18 274.625 700.418 274.457 700.474L251.438 708.147" stroke="#793CFF" stroke-width="4.43195" stroke-linecap="round"/>
<path d="M320.949 677.127L343.968 684.8C344.137 684.856 344.137 685.094 343.968 685.15L321.475 692.648C321.306 692.704 321.306 692.943 321.475 692.999L343.968 700.497C344.137 700.553 344.137 700.791 343.968 700.847L320.949 708.52" stroke="#793CFF" stroke-width="4.43195" stroke-linecap="round"/>
<path d="M390.477 677.503L413.496 685.176C413.664 685.232 413.664 685.47 413.496 685.526L391.002 693.024C390.834 693.08 390.834 693.319 391.002 693.375L413.496 700.873C413.664 700.929 413.664 701.167 413.496 701.223L390.477 708.896" stroke="#793CFF" stroke-width="4.43195" stroke-linecap="round"/>
<path d="M460.328 676.622L483.347 684.295C483.516 684.351 483.516 684.589 483.347 684.646L460.854 692.143C460.685 692.2 460.685 692.438 460.854 692.494L483.347 699.992C483.516 700.048 483.516 700.286 483.347 700.342L460.328 708.015" stroke="#793CFF" stroke-width="4.43195" stroke-linecap="round"/>
<path d="M529.855 676.998L552.875 684.671C553.043 684.727 553.043 684.965 552.875 685.021L530.381 692.519C530.213 692.575 530.213 692.814 530.381 692.87L552.875 700.368C553.043 700.424 553.043 700.662 552.875 700.718L529.855 708.391" stroke="#793CFF" stroke-width="4.43195" stroke-linecap="round"/>
<path d="M599.371 677.376L622.39 685.049C622.559 685.105 622.559 685.343 622.39 685.399L599.897 692.897C599.728 692.953 599.728 693.192 599.897 693.248L622.39 700.746C622.559 700.802 622.559 701.04 622.39 701.096L599.371 708.769" stroke="#793CFF" stroke-width="4.43195" stroke-linecap="round"/>
<path d="M669.223 676.495L692.242 684.168C692.41 684.224 692.41 684.462 692.242 684.519L669.748 692.016C669.58 692.073 669.58 692.311 669.748 692.367L692.242 699.865C692.41 699.921 692.41 700.159 692.242 700.215L669.223 707.888" stroke="#793CFF" stroke-width="4.43195" stroke-linecap="round"/>
<path d="M738.738 676.87L761.757 684.543C761.926 684.599 761.926 684.837 761.757 684.894L739.264 692.391C739.095 692.448 739.095 692.686 739.264 692.742L761.757 700.24C761.926 700.296 761.926 700.534 761.757 700.59L738.738 708.263" stroke="#793CFF" stroke-width="4.43195" stroke-linecap="round"/>
<path d="M808.258 677.248L831.277 684.921C831.445 684.977 831.445 685.215 831.277 685.271L808.783 692.769C808.615 692.825 808.615 693.064 808.783 693.12L831.277 700.618C831.445 700.674 831.445 700.912 831.277 700.968L808.258 708.641" stroke="#793CFF" stroke-width="4.43195" stroke-linecap="round"/>
<path d="M877.32 676.826L900.34 684.499C900.508 684.555 900.508 684.793 900.34 684.85L877.846 692.347C877.678 692.404 877.678 692.642 877.846 692.698L900.34 700.196C900.508 700.252 900.508 700.49 900.34 700.546L877.32 708.219" stroke="#793CFF" stroke-width="4.43195" stroke-linecap="round"/>
<path d="M42.6211 747.195L65.6403 754.868C65.8086 754.924 65.8086 755.163 65.6403 755.219L43.1467 762.717C42.9783 762.773 42.9783 763.011 43.1467 763.067L65.6403 770.565C65.8086 770.621 65.8086 770.859 65.6403 770.915L42.6211 778.588" stroke="#793CFF" stroke-width="4.43195" stroke-linecap="round"/>
<path d="M112.484 746.312L135.504 753.985C135.672 754.041 135.672 754.279 135.504 754.335L113.01 761.833C112.842 761.889 112.842 762.127 113.01 762.183L135.504 769.681C135.672 769.737 135.672 769.975 135.504 770.031L112.484 777.705" stroke="#793CFF" stroke-width="4.43195" stroke-linecap="round"/>
<path d="M182 746.689L205.019 754.363C205.188 754.419 205.188 754.657 205.019 754.713L182.526 762.211C182.357 762.267 182.357 762.505 182.526 762.561L205.019 770.059C205.188 770.115 205.188 770.353 205.019 770.409L182 778.082" stroke="#793CFF" stroke-width="4.43195" stroke-linecap="round"/>
<path d="M251.52 747.068L274.539 754.741C274.707 754.798 274.707 755.036 274.539 755.092L252.045 762.59C251.877 762.646 251.877 762.884 252.045 762.94L274.539 770.438C274.707 770.494 274.707 770.732 274.539 770.788L251.52 778.461" stroke="#793CFF" stroke-width="4.43195" stroke-linecap="round"/>
<path d="M320.574 746.646L343.593 754.32C343.762 754.376 343.762 754.614 343.593 754.67L321.1 762.168C320.931 762.224 320.931 762.462 321.1 762.518L343.593 770.016C343.762 770.072 343.762 770.31 343.593 770.366L320.574 778.039" stroke="#793CFF" stroke-width="4.43195" stroke-linecap="round"/>
<path d="M390.895 746.562L413.914 754.236C414.082 754.292 414.082 754.53 413.914 754.586L391.42 762.084C391.252 762.14 391.252 762.378 391.42 762.434L413.914 769.932C414.082 769.988 414.082 770.226 413.914 770.282L390.895 777.956" stroke="#793CFF" stroke-width="4.43195" stroke-linecap="round"/>
<path d="M460.41 746.938L483.429 754.612C483.598 754.668 483.598 754.906 483.429 754.962L460.936 762.46C460.767 762.516 460.767 762.754 460.936 762.81L483.429 770.308C483.598 770.364 483.598 770.602 483.429 770.658L460.41 778.331" stroke="#793CFF" stroke-width="4.43195" stroke-linecap="round"/>
<path d="M529.461 746.516L552.48 754.189C552.648 754.245 552.648 754.483 552.48 754.539L529.987 762.037C529.818 762.093 529.818 762.331 529.987 762.387L552.48 769.885C552.648 769.941 552.648 770.179 552.48 770.236L529.461 777.909" stroke="#793CFF" stroke-width="4.43195" stroke-linecap="round"/>
<path d="M599.781 746.433L622.8 754.106C622.969 754.162 622.969 754.4 622.8 754.456L600.307 761.954C600.138 762.01 600.138 762.248 600.307 762.304L622.8 769.802C622.969 769.858 622.969 770.096 622.8 770.153L599.781 777.826" stroke="#793CFF" stroke-width="4.43195" stroke-linecap="round"/>
<path d="M669.305 746.81L692.324 754.483C692.492 754.539 692.492 754.777 692.324 754.833L669.83 762.331C669.662 762.387 669.662 762.625 669.83 762.681L692.324 770.179C692.492 770.235 692.492 770.473 692.324 770.53L669.305 778.203" stroke="#793CFF" stroke-width="4.43195" stroke-linecap="round"/>
<path d="M738.363 746.387L761.382 754.06C761.551 754.116 761.551 754.354 761.382 754.41L738.889 761.908C738.72 761.964 738.72 762.202 738.889 762.258L761.382 769.756C761.551 769.812 761.551 770.051 761.382 770.107L738.363 777.78" stroke="#793CFF" stroke-width="4.43195" stroke-linecap="round"/>
<path d="M807.875 746.766L830.894 754.439C831.063 754.495 831.063 754.733 830.894 754.789L808.401 762.287C808.232 762.343 808.232 762.581 808.401 762.637L830.894 770.135C831.063 770.191 831.063 770.429 830.894 770.486L807.875 778.159" stroke="#793CFF" stroke-width="4.43195" stroke-linecap="round"/>
<path d="M878.203 746.682L901.222 754.355C901.391 754.411 901.391 754.649 901.222 754.705L878.729 762.203C878.56 762.259 878.56 762.497 878.729 762.553L901.222 770.051C901.391 770.107 901.391 770.345 901.222 770.402L878.203 778.075" stroke="#793CFF" stroke-width="4.43195" stroke-linecap="round"/>
<path d="M43.0469 816.253L66.0661 823.926C66.2344 823.982 66.2344 824.22 66.0661 824.276L43.5724 831.774C43.4041 831.83 43.4041 832.069 43.5724 832.125L66.0661 839.623C66.2344 839.679 66.2344 839.917 66.0661 839.973L43.0469 847.646" stroke="#793CFF" stroke-width="4.43195" stroke-linecap="round"/>
<path d="M112.57 816.631L135.59 824.304C135.758 824.36 135.758 824.598 135.59 824.654L113.096 832.152C112.928 832.208 112.928 832.446 113.096 832.503L135.59 840C135.758 840.057 135.758 840.295 135.59 840.351L112.57 848.024" stroke="#793CFF" stroke-width="4.43195" stroke-linecap="round"/>
<path d="M181.633 816.207L204.652 823.88C204.82 823.936 204.82 824.174 204.652 824.23L182.158 831.728C181.99 831.784 181.99 832.023 182.158 832.079L204.652 839.577C204.82 839.633 204.82 839.871 204.652 839.927L181.633 847.6" stroke="#793CFF" stroke-width="4.43195" stroke-linecap="round"/>
<path d="M251.137 816.587L274.156 824.26C274.324 824.316 274.324 824.554 274.156 824.61L251.662 832.108C251.494 832.164 251.494 832.402 251.662 832.459L274.156 839.956C274.324 840.013 274.324 840.251 274.156 840.307L251.137 847.98" stroke="#793CFF" stroke-width="4.43195" stroke-linecap="round"/>
<path d="M321.457 816.502L344.476 824.175C344.645 824.231 344.645 824.469 344.476 824.525L321.983 832.023C321.814 832.079 321.814 832.318 321.983 832.374L344.476 839.872C344.645 839.928 344.645 840.166 344.476 840.222L321.457 847.895" stroke="#793CFF" stroke-width="4.43195" stroke-linecap="round"/>
<path d="M390.508 816.081L413.527 823.754C413.695 823.81 413.695 824.048 413.527 824.104L391.033 831.602C390.865 831.658 390.865 831.897 391.033 831.953L413.527 839.451C413.695 839.507 413.695 839.745 413.527 839.801L390.508 847.474" stroke="#793CFF" stroke-width="4.43195" stroke-linecap="round"/>
<path d="M460.035 816.458L483.054 824.131C483.223 824.187 483.223 824.425 483.054 824.481L460.561 831.979C460.392 832.035 460.392 832.274 460.561 832.33L483.054 839.828C483.223 839.884 483.223 840.122 483.054 840.178L460.035 847.851" stroke="#793CFF" stroke-width="4.43195" stroke-linecap="round"/>
<path d="M530.352 816.375L553.371 824.048C553.539 824.104 553.539 824.342 553.371 824.398L530.877 831.896C530.709 831.952 530.709 832.191 530.877 832.247L553.371 839.745C553.539 839.801 553.539 840.039 553.371 840.095L530.352 847.768" stroke="#793CFF" stroke-width="4.43195" stroke-linecap="round"/>
<path d="M599.414 815.953L622.433 823.626C622.602 823.682 622.602 823.92 622.433 823.977L599.94 831.474C599.771 831.531 599.771 831.769 599.94 831.825L622.433 839.323C622.602 839.379 622.602 839.617 622.433 839.673L599.414 847.346" stroke="#793CFF" stroke-width="4.43195" stroke-linecap="round"/>
<path d="M668.922 816.33L691.941 824.003C692.109 824.059 692.109 824.297 691.941 824.354L669.447 831.851C669.279 831.908 669.279 832.146 669.447 832.202L691.941 839.7C692.109 839.756 692.109 839.994 691.941 840.05L668.922 847.723" stroke="#793CFF" stroke-width="4.43195" stroke-linecap="round"/>
<path d="M738.445 816.708L761.465 824.381C761.633 824.437 761.633 824.675 761.465 824.731L738.971 832.229C738.803 832.285 738.803 832.524 738.971 832.58L761.465 840.078C761.633 840.134 761.633 840.372 761.465 840.428L738.445 848.101" stroke="#793CFF" stroke-width="4.43195" stroke-linecap="round"/>
<path d="M808.301 815.823L831.32 823.496C831.488 823.552 831.488 823.791 831.32 823.847L808.826 831.345C808.658 831.401 808.658 831.639 808.826 831.695L831.32 839.193C831.488 839.249 831.488 839.487 831.32 839.543L808.301 847.216" stroke="#793CFF" stroke-width="4.43195" stroke-linecap="round"/>
<path d="M877.824 816.2L900.843 823.873C901.012 823.929 901.012 824.168 900.843 824.224L878.35 831.722C878.181 831.778 878.181 832.016 878.35 832.072L900.843 839.57C901.012 839.626 901.012 839.864 900.843 839.92L877.824 847.593" stroke="#793CFF" stroke-width="4.43195" stroke-linecap="round"/>
<path d="M42.668 885.771L65.6872 893.445C65.8555 893.501 65.8555 893.739 65.6872 893.795L43.1935 901.293C43.0252 901.349 43.0252 901.587 43.1935 901.643L65.6872 909.141C65.8555 909.197 65.8555 909.435 65.6872 909.491L42.668 917.164" stroke="#793CFF" stroke-width="4.43195" stroke-linecap="round"/>
<path d="M112.184 886.151L135.203 893.824C135.371 893.881 135.371 894.119 135.203 894.175L112.709 901.673C112.541 901.729 112.541 901.967 112.709 902.023L135.203 909.521C135.371 909.577 135.371 909.815 135.203 909.871L112.184 917.544" stroke="#793CFF" stroke-width="4.43195" stroke-linecap="round"/>
<path d="M182.043 885.267L205.062 892.94C205.231 892.996 205.231 893.234 205.062 893.29L182.569 900.788C182.4 900.844 182.4 901.082 182.569 901.138L205.062 908.636C205.231 908.692 205.231 908.93 205.062 908.987L182.043 916.66" stroke="#793CFF" stroke-width="4.43195" stroke-linecap="round"/>
<path d="M251.559 885.645L274.578 893.318C274.746 893.374 274.746 893.612 274.578 893.668L252.084 901.166C251.916 901.222 251.916 901.46 252.084 901.516L274.578 909.014C274.746 909.07 274.746 909.308 274.578 909.364L251.559 917.038" stroke="#793CFF" stroke-width="4.43195" stroke-linecap="round"/>
<path d="M321.082 886.022L344.101 893.696C344.27 893.752 344.27 893.99 344.101 894.046L321.608 901.544C321.439 901.6 321.439 901.838 321.608 901.894L344.101 909.392C344.27 909.448 344.27 909.686 344.101 909.742L321.082 917.415" stroke="#793CFF" stroke-width="4.43195" stroke-linecap="round"/>
<path d="M390.598 886.4L413.617 894.073C413.785 894.13 413.785 894.368 413.617 894.424L391.123 901.922C390.955 901.978 390.955 902.216 391.123 902.272L413.617 909.77C413.785 909.826 413.785 910.064 413.617 910.12L390.598 917.793" stroke="#793CFF" stroke-width="4.43195" stroke-linecap="round"/>
<path d="M460.469 885.513L483.488 893.186C483.656 893.242 483.656 893.48 483.488 893.536L460.994 901.034C460.826 901.09 460.826 901.328 460.994 901.384L483.488 908.882C483.656 908.938 483.656 909.177 483.488 909.233L460.469 916.906" stroke="#793CFF" stroke-width="4.43195" stroke-linecap="round"/>
<path d="M529.977 885.895L552.996 893.568C553.164 893.624 553.164 893.862 552.996 893.918L530.502 901.416C530.334 901.472 530.334 901.71 530.502 901.766L552.996 909.264C553.164 909.32 553.164 909.558 552.996 909.614L529.977 917.288" stroke="#793CFF" stroke-width="4.43195" stroke-linecap="round"/>
<path d="M599.496 886.271L622.515 893.945C622.684 894.001 622.684 894.239 622.515 894.295L600.022 901.793C599.853 901.849 599.853 902.087 600.022 902.143L622.515 909.641C622.684 909.697 622.684 909.935 622.515 909.991L599.496 917.664" stroke="#793CFF" stroke-width="4.43195" stroke-linecap="round"/>
<path d="M668.555 885.848L691.574 893.521C691.742 893.577 691.742 893.815 691.574 893.871L669.08 901.369C668.912 901.425 668.912 901.663 669.08 901.719L691.574 909.217C691.742 909.273 691.742 909.511 691.574 909.568L668.555 917.241" stroke="#793CFF" stroke-width="4.43195" stroke-linecap="round"/>
<path d="M738.871 885.765L761.89 893.438C762.059 893.494 762.059 893.732 761.89 893.788L739.397 901.286C739.228 901.342 739.228 901.58 739.397 901.636L761.89 909.134C762.059 909.19 762.059 909.428 761.89 909.485L738.871 917.158" stroke="#793CFF" stroke-width="4.43195" stroke-linecap="round"/>
<path d="M808.387 886.144L831.406 893.817C831.574 893.873 831.574 894.111 831.406 894.167L808.912 901.665C808.744 901.721 808.744 901.959 808.912 902.015L831.406 909.513C831.574 909.569 831.574 909.807 831.406 909.864L808.387 917.537" stroke="#793CFF" stroke-width="4.43195" stroke-linecap="round"/>
<path d="M877.441 885.722L900.461 893.395C900.629 893.451 900.629 893.689 900.461 893.745L877.967 901.243C877.799 901.299 877.799 901.537 877.967 901.593L900.461 909.091C900.629 909.147 900.629 909.386 900.461 909.442L877.441 917.115" stroke="#793CFF" stroke-width="4.43195" stroke-linecap="round"/>
<g filter="url(#filter0_f_582_57390)">
<circle cx="449.629" cy="450.24" r="300" fill="#783CFF"/>
</g>
</g>
</g>
<defs>
<filter id="filter0_f_582_57390" x="-221.571" y="-220.96" width="1342.4" height="1342.4" filterUnits="userSpaceOnUse" color-interpolation-filters="sRGB">
<feFlood flood-opacity="0" result="BackgroundImageFix"/>
<feBlend mode="normal" in="SourceGraphic" in2="BackgroundImageFix" result="shape"/>
<feGaussianBlur stdDeviation="185.6" result="effect1_foregroundBlur_582_57390"/>
</filter>
<radialGradient id="paint0_radial_582_57390" cx="0" cy="0" r="1" gradientUnits="userSpaceOnUse" gradientTransform="translate(450 450) rotate(90) scale(450)">
<stop stop-color="#D9D9D9"/>
<stop offset="1" stop-color="#737373" stop-opacity="0"/>
</radialGradient>
</defs>
</svg>
