<svg width="25" height="24" viewBox="0 0 25 24" fill="none" xmlns="http://www.w3.org/2000/svg">
<g clip-path="url(#clip0_1305_60213)">
<path d="M12.5 24C19.1274 24 24.5 18.6274 24.5 12C24.5 5.37258 19.1274 0 12.5 0C5.87258 0 0.5 5.37258 0.5 12C0.5 18.6274 5.87258 24 12.5 24Z" fill="url(#paint0_linear_1305_60213)"/>
<path fill-rule="evenodd" clip-rule="evenodd" d="M5.93104 11.8739C9.42928 10.3498 11.762 9.34501 12.9292 8.85954C16.2617 7.47343 16.9542 7.23264 17.4055 7.22469C17.5048 7.22295 17.7267 7.24755 17.8705 7.36421C17.9919 7.46272 18.0253 7.59579 18.0413 7.68918C18.0573 7.78258 18.0772 7.99534 18.0614 8.16158C17.8808 10.0591 17.0994 14.6638 16.7018 16.789C16.5336 17.6882 16.2024 17.9897 15.8817 18.0192C15.1849 18.0834 14.6557 17.5587 13.9808 17.1163C12.9246 16.424 12.3279 15.993 11.3028 15.3174C10.118 14.5367 10.886 14.1075 11.5612 13.4062C11.7379 13.2227 14.8083 10.43 14.8677 10.1766C14.8752 10.1449 14.8821 10.0268 14.8119 9.96446C14.7417 9.90209 14.6382 9.92342 14.5635 9.94038C14.4575 9.96442 12.7703 11.0796 9.50179 13.286C9.02287 13.6148 8.58909 13.775 8.20043 13.7666C7.77197 13.7574 6.94778 13.5244 6.33508 13.3252C5.58358 13.0809 4.9863 12.9518 5.03831 12.5369C5.0654 12.3208 5.36298 12.0998 5.93104 11.8739Z" fill="white"/>
</g>
<defs>
<linearGradient id="paint0_linear_1305_60213" x1="12.5" y1="0" x2="12.5" y2="23.822" gradientUnits="userSpaceOnUse">
<stop stop-color="#2AABEE"/>
<stop offset="1" stop-color="#229ED9"/>
</linearGradient>
<clipPath id="clip0_1305_60213">
<rect width="24" height="24" fill="white" transform="translate(0.5)"/>
</clipPath>
</defs>
</svg>
