<svg width="14" height="15" viewBox="0 0 14 15" fill="none" xmlns="http://www.w3.org/2000/svg">
<g clip-path="url(#clip0_617_39000)">
<path d="M7 14.5C10.866 14.5 14 11.366 14 7.5C14 3.63401 10.866 0.5 7 0.5C3.13401 0.5 0 3.63401 0 7.5C0 11.366 3.13401 14.5 7 14.5Z" fill="#0088CC"/>
<path fill-rule="evenodd" clip-rule="evenodd" d="M5.05006 5.125H8.97506C9.12506 5.125 9.25006 5.15 9.40006 5.225C9.57506 5.3 9.67506 5.425 9.72506 5.525C9.72506 5.525 9.72506 5.55 9.75006 5.55C9.82506 5.675 9.87506 5.825 9.87506 6C9.87506 6.15 9.85006 6.3 9.75006 6.45L7.27506 10.7C7.22506 10.8 7.12506 10.85 7.00006 10.85C6.90006 10.85 6.80006 10.8 6.72506 10.7L4.30006 6.45C4.25006 6.35 4.15006 6.225 4.15006 6.025C4.12506 5.85 4.17506 5.7 4.25006 5.55C4.32506 5.4 4.45006 5.275 4.62506 5.225C4.77506 5.125 4.95006 5.125 5.05006 5.125ZM6.70006 5.725H5.05006C4.95006 5.725 4.90006 5.725 4.87506 5.75C4.82506 5.775 4.80006 5.8 4.77506 5.85C4.75006 5.875 4.75006 5.925 4.75006 5.975C4.75006 6 4.77506 6.025 4.82506 6.125L6.70006 9.375V5.725ZM7.30006 5.725V9.4L9.20006 6.125C9.22506 6.075 9.22506 6.025 9.22506 5.975C9.22506 5.925 9.22506 5.875 9.20006 5.85C9.17506 5.825 9.17506 5.8 9.15006 5.8L9.12506 5.775C9.07506 5.75 9.02506 5.75 8.95006 5.75H7.30006V5.725Z" fill="white"/>
</g>
<defs>
<clipPath id="clip0_617_39000">
<rect width="14" height="14" fill="white" transform="translate(0 0.5)"/>
</clipPath>
</defs>
</svg>
