<svg width="14" height="15" viewBox="0 0 14 15" fill="none" xmlns="http://www.w3.org/2000/svg">
<path d="M7 14.5C10.8504 14.5 14 11.3504 14 7.5C13.9986 3.64964 10.8489 0.5 7 0.5C3.14964 0.5 0 3.64964 0 7.5C0 11.3504 3.14964 14.5 7 14.5Z" fill="#0098EA"/>
<path d="M9.52762 8.91266C9.52762 9.13731 9.37737 9.33425 9.16066 9.39357L4.95402 10.5452C4.71342 10.6111 4.47607 10.4299 4.47607 10.1805C4.47607 10.0068 4.59443 9.85535 4.76307 9.81349L8.36548 8.91894C8.37875 8.91562 8.38806 8.90371 8.38806 8.89007C8.38806 8.8765 8.3789 8.86467 8.36576 8.86128L4.85559 7.95467C4.63217 7.89694 4.47607 7.69545 4.47607 7.46467C4.47607 7.23396 4.63217 7.0324 4.85566 6.97474L8.36822 6.06806C8.38135 6.06467 8.39052 6.05283 8.39052 6.03927C8.39052 6.02563 8.38121 6.01372 8.36793 6.01047L4.76408 5.1183C4.59493 5.07644 4.47607 4.92461 4.47607 4.75033C4.47607 4.5002 4.71415 4.31864 4.95539 4.38481L9.16196 5.53837C9.37795 5.59762 9.52762 5.7939 9.52762 6.01783C9.52762 6.24118 9.3786 6.43718 9.16333 6.49686L5.76263 7.43999C5.75159 7.44309 5.74387 7.45319 5.74387 7.46467C5.74387 7.47614 5.75159 7.48624 5.76263 7.48935L9.16225 8.43218C9.37817 8.49201 9.52762 8.68859 9.52762 8.91266Z" fill="white"/>
</svg>
